<?xml version="1.0" encoding="UTF-8" standalone="no"?>
<!-- Created with Inkscape (http://www.inkscape.org/) -->

<svg
   version="1.1"
   id="svg1"
   width="620.26666"
   height="547.02667"
   viewBox="0 0 620.26666 547.02667"
   sodipodi:docname="time.eps"
   xmlns:inkscape="http://www.inkscape.org/namespaces/inkscape"
   xmlns:sodipodi="http://sodipodi.sourceforge.net/DTD/sodipodi-0.dtd"
   xmlns="http://www.w3.org/2000/svg"
   xmlns:svg="http://www.w3.org/2000/svg">
  <defs
     id="defs1" />
  <sodipodi:namedview
     id="namedview1"
     pagecolor="#ffffff"
     bordercolor="#000000"
     borderopacity="0.25"
     inkscape:showpageshadow="2"
     inkscape:pageopacity="0.0"
     inkscape:pagecheckerboard="0"
     inkscape:deskcolor="#d1d1d1">
    <inkscape:page
       x="0"
       y="0"
       inkscape:label="1"
       id="page1"
       width="620.26666"
       height="547.02667"
       margin="0"
       bleed="0" />
  </sodipodi:namedview>
  <g
     id="g1"
     inkscape:groupmode="layer"
     inkscape:label="1">
    <g
       id="group-R5">
      <path
         id="path2"
         d="m 1033.93,438.23 c -393.266,0 -816.754,616.51 -880.117,1199.05 -111.4692,1024.8 849.997,2327.16 2112.547,2455.11 52.24,5.29 103.67,8.44 154.19,9.68 16.12,0.39 32.28,0.59 48.31,0.59 552.48,0 1053.24,-232.86 1341.16,-610.75 595.66,-781.84 706.03,-1563.07 306.36,-1973.69 -69.98,-71.89 -249.01,-228.39 -513.06,-320.33 100.94,195.78 158.18,417.75 158.86,653.02 6.09,-10.5 9.82,-16.1 9.82,-16.1 0,0 187.71,170.96 162.46,256.27 -25.25,85.32 17.95,179.81 -40.29,282.72 -58.25,102.91 -84.76,85.46 -221.69,110.24 -24.33,4.4 -45.01,10.38 -63.24,16.7 -236.38,468.96 -722.26,790.61 -1283.28,790.61 -239.84,0 -466,-58.81 -664.75,-162.77 34.43,151.72 77.26,332.52 77.26,332.52 l -590.75,104.36 c 0,0 -191.349,-711.07 -171.54,-744.32 8.562,-14.38 101.07,-54.14 215.57,-84.83 -189.29,-243.28 -302.016,-549.07 -302.016,-881.19 0,-461.86 218.066,-872.85 556.796,-1135.581 -113.65,-150.258 -224.93,-272.16 -393.49,-280.82 -6.35,-0.328 -12.74,-0.489 -19.11,-0.489"
         style="fill:#e3f6f8;fill-opacity:1;fill-rule:nonzero;stroke:none"
         transform="matrix(0.13333333,0,0,-0.13333333,0,547.02667)" />
      <path
         id="path3"
         d="m 1256.76,3208.12 4.78,-29.66 -0.73,-0.08 z"
         style="fill:#99b6bb;fill-opacity:1;fill-rule:nonzero;stroke:none"
         transform="matrix(0.13333333,0,0,-0.13333333,0,547.02667)" />
      <path
         id="path4"
         d="m 1265.01,3117.1 c -0.28,-20.53 -2.01,-41.06 -5.2,-61.39 l -3.67,0.62 c 3.65,20.07 5.87,40.41 6.64,60.83 l 2.23,-0.06"
         style="fill:#99b6bb;fill-opacity:1;fill-rule:nonzero;stroke:none"
         transform="matrix(0.13333333,0,0,-0.13333333,0,547.02667)" />
      <path
         id="path5"
         d="m 1245.83,2995.62 c -6.19,-19.64 -13.83,-38.85 -22.84,-57.39 l -5.36,2.64 c 9.15,18.16 16.93,37 23.32,56.32 l 4.88,-1.57"
         style="fill:#99b6bb;fill-opacity:1;fill-rule:nonzero;stroke:none"
         transform="matrix(0.13333333,0,0,-0.13333333,0,547.02667)" />
      <path
         id="path6"
         d="m 1191.82,2884.81 c -11.73,-16.98 -24.79,-33.08 -39.08,-48.02 l -5.5,5.32 c 14.21,14.46 27.25,30.07 39,46.61 l 5.58,-3.91"
         style="fill:#99b6bb;fill-opacity:1;fill-rule:nonzero;stroke:none"
         transform="matrix(0.13333333,0,0,-0.13333333,0,547.02667)" />
      <path
         id="path7"
         d="m 1106.32,2795.68 c -16.65,-12.31 -34.38,-23.19 -52.96,-32.39 l -3.86,7.83 c 18.14,8.89 35.49,19.42 51.81,31.37 l 5.01,-6.81"
         style="fill:#99b6bb;fill-opacity:1;fill-rule:nonzero;stroke:none"
         transform="matrix(0.13333333,0,0,-0.13333333,0,547.02667)" />
      <path
         id="path8"
         d="m 995.402,2740.91 c -19.984,-5.62 -40.449,-9.35 -61.039,-11.53 l -0.957,9.24 c 20.133,2.03 40.11,5.6 59.574,10.97 l 2.422,-8.68"
         style="fill:#99b6bb;fill-opacity:1;fill-rule:nonzero;stroke:none"
         transform="matrix(0.13333333,0,0,-0.13333333,0,547.02667)" />
      <path
         id="path9"
         d="m 872.387,2727.31 c -20.664,0.73 -41.278,2.81 -61.676,6.17 l 1.621,9.71 c 19.977,-3.38 40.172,-5.51 60.414,-6.32 l -0.359,-9.56"
         style="fill:#99b6bb;fill-opacity:1;fill-rule:nonzero;stroke:none"
         transform="matrix(0.13333333,0,0,-0.13333333,0,547.02667)" />
      <path
         id="path10"
         d="m 750.316,2747.66 c -19.765,6.16 -39.16,13.68 -57.707,23.13 l 4.34,8.55 c 17.989,-9.06 36.938,-16.32 56.274,-22.25 l -2.907,-9.43"
         style="fill:#99b6bb;fill-opacity:1;fill-rule:nonzero;stroke:none"
         transform="matrix(0.13333333,0,0,-0.13333333,0,547.02667)" />
      <path
         id="path11"
         d="m 641.254,2806.78 c -7.379,7.62 -14.066,16.32 -18.336,26.55 -4.457,10.25 -5.074,22.02 -3.438,32.54 l 8.942,-1.27 c -1.387,-9.66 -0.817,-19.1 2.965,-27.74 3.656,-8.71 9.668,-16.56 16.515,-23.57 l -6.648,-6.51"
         style="fill:#99b6bb;fill-opacity:1;fill-rule:nonzero;stroke:none"
         transform="matrix(0.13333333,0,0,-0.13333333,0,547.02667)" />
      <path
         id="path12"
         d="m 649.688,2921.79 c 4.667,3.23 10.925,5.7 17.269,4.96 6.231,-0.56 11.609,-3.26 16.191,-6.52 9.145,-6.66 15.739,-15.88 19.618,-26.36 l -7.985,-2.82 c -3.226,8.69 -9.133,16.83 -16.633,22.17 -3.722,2.65 -7.902,4.57 -11.945,4.89 -3.953,0.46 -7.879,-1.02 -11.59,-3.54 l -4.925,7.22"
         style="fill:#99b6bb;fill-opacity:1;fill-rule:nonzero;stroke:none"
         transform="matrix(0.13333333,0,0,-0.13333333,0,547.02667)" />
      <path
         id="path13"
         d="m 689.223,2832.45 c -11.825,-17.46 -27.055,-32.19 -44.149,-44.15 l -3.937,5.59 c 16.258,11.71 30.75,26.16 41.668,42.79 l 6.418,-4.23"
         style="fill:#99b6bb;fill-opacity:1;fill-rule:nonzero;stroke:none"
         transform="matrix(0.13333333,0,0,-0.13333333,0,547.02667)" />
      <path
         id="path14"
         d="m 587.215,2765.15 c -20.922,-2.39 -42.008,0.83 -61.715,7.15 l 1.543,4.91 c 19.266,-5.89 39.625,-8.66 59.449,-6.12 l 0.723,-5.94"
         style="fill:#99b6bb;fill-opacity:1;fill-rule:nonzero;stroke:none"
         transform="matrix(0.13333333,0,0,-0.13333333,0,547.02667)" />
      <path
         id="path15"
         d="m 469.996,2799.58 c -17.23,11.3 -33.215,24.36 -48.058,38.53 l 1.531,1.64 c 15.097,-13.72 31.265,-26.27 48.547,-37.01 l -2.02,-3.16"
         style="fill:#99b6bb;fill-opacity:1;fill-rule:nonzero;stroke:none"
         transform="matrix(0.13333333,0,0,-0.13333333,0,547.02667)" />
      <path
         id="path16"
         d="m 380.816,2883.69 -17.761,24.2 18.336,-23.74 z"
         style="fill:#99b6bb;fill-opacity:1;fill-rule:nonzero;stroke:none"
         transform="matrix(0.13333333,0,0,-0.13333333,0,547.02667)" />
      <path
         id="path17"
         d="m 3697.33,3813.67 27.95,-11.02 -0.3,-0.67 z"
         style="fill:#99b6bb;fill-opacity:1;fill-rule:nonzero;stroke:none"
         transform="matrix(0.13333333,0,0,-0.13333333,0,547.02667)" />
      <path
         id="path18"
         d="m 3779.82,3774.33 c 17.52,-10.72 34.3,-22.69 50.15,-35.8 l -2.41,-2.84 c -15.39,13.38 -31.76,25.67 -48.93,36.75 l 1.19,1.89"
         style="fill:#99b6bb;fill-opacity:1;fill-rule:nonzero;stroke:none"
         transform="matrix(0.13333333,0,0,-0.13333333,0,547.02667)" />
      <path
         id="path19"
         d="m 3874.51,3695.84 c 13.74,-15.35 26.36,-31.71 37.7,-48.93 l -5,-3.25 c -10.95,17.13 -23.18,33.44 -36.54,48.79 l 3.84,3.39"
         style="fill:#99b6bb;fill-opacity:1;fill-rule:nonzero;stroke:none"
         transform="matrix(0.13333333,0,0,-0.13333333,0,547.02667)" />
      <path
         id="path20"
         d="m 3942.25,3592.86 c 8.63,-18.76 15.8,-38.2 21.36,-58.12 l -7.38,-2.01 c -5.19,19.59 -11.96,38.77 -20.19,57.32 l 6.21,2.81"
         style="fill:#99b6bb;fill-opacity:1;fill-rule:nonzero;stroke:none"
         transform="matrix(0.13333333,0,0,-0.13333333,0,547.02667)" />
      <path
         id="path21"
         d="m 3975.28,3473.84 c 2.09,-20.6 2.4,-41.4 0.84,-62.07 l -8.71,0.67 c 1.61,20.14 1.41,40.44 -0.54,60.57 l 8.41,0.83"
         style="fill:#99b6bb;fill-opacity:1;fill-rule:nonzero;stroke:none"
         transform="matrix(0.13333333,0,0,-0.13333333,0,547.02667)" />
      <path
         id="path22"
         d="m 3965.79,3350.5 c -5.36,-20.05 -12.59,-39.56 -21.22,-58.37 l -8.44,3.89 c 8.52,18.35 15.65,37.35 20.96,56.83 l 8.7,-2.35"
         style="fill:#99b6bb;fill-opacity:1;fill-rule:nonzero;stroke:none"
         transform="matrix(0.13333333,0,0,-0.13333333,0,547.02667)" />
      <path
         id="path23"
         d="m 3914.72,3237.77 c -11.18,-17.4 -23.47,-34.06 -36.77,-49.9 l -7.53,6.35 c 13.1,15.46 25.23,31.74 36.26,48.73 l 8.04,-5.18"
         style="fill:#99b6bb;fill-opacity:1;fill-rule:nonzero;stroke:none"
         transform="matrix(0.13333333,0,0,-0.13333333,0,547.02667)" />
      <path
         id="path24"
         d="m 3834.93,3143.17 c -15.38,-13.86 -31.75,-26.7 -49.34,-37.83 l -5.13,8.1 c 16.97,10.84 32.88,23.43 47.84,37.04 l 6.63,-7.31"
         style="fill:#99b6bb;fill-opacity:1;fill-rule:nonzero;stroke:none"
         transform="matrix(0.13333333,0,0,-0.13333333,0,547.02667)" />
      <path
         id="path25"
         d="m 3728.45,3079.53 c -10.34,-2.45 -21.22,-3.77 -32.2,-2.22 -11.09,1.4 -21.53,6.87 -29.74,13.65 l 5.66,7.04 c 7.59,-6.12 16.01,-10.45 25.37,-11.6 9.35,-1.3 19.17,-0.14 28.69,2.18 l 2.22,-9.05"
         style="fill:#99b6bb;fill-opacity:1;fill-rule:nonzero;stroke:none"
         transform="matrix(0.13333333,0,0,-0.13333333,0,547.02667)" />
      <path
         id="path26"
         d="m 3633.83,3145.47 c -0.39,5.66 0.68,12.3 4.55,17.39 3.66,5.07 8.72,8.32 13.86,10.59 10.39,4.47 21.69,5.43 32.68,3.43 l -1.63,-8.31 c -9.13,1.66 -19.15,0.73 -27.57,-2.99 -4.18,-1.85 -7.96,-4.47 -10.29,-7.78 -2.41,-3.17 -3.15,-7.3 -2.87,-11.78 l -8.73,-0.55"
         style="fill:#99b6bb;fill-opacity:1;fill-rule:nonzero;stroke:none"
         transform="matrix(0.13333333,0,0,-0.13333333,0,547.02667)" />
      <path
         id="path27"
         d="m 3730.84,3133.89 c 8.98,-19.08 13.87,-39.69 15.45,-60.5 l -6.82,-0.53 c -1.78,19.96 -6.81,39.79 -15.55,57.67 l 6.92,3.36"
         style="fill:#99b6bb;fill-opacity:1;fill-rule:nonzero;stroke:none"
         transform="matrix(0.13333333,0,0,-0.13333333,0,547.02667)" />
      <path
         id="path28"
         d="m 3736.68,3011.82 c -8.63,-19.21 -22.15,-35.71 -37.66,-49.43 l -3.43,3.84 c 14.91,13.55 27.67,29.65 35.6,48 l 5.49,-2.41"
         style="fill:#99b6bb;fill-opacity:1;fill-rule:nonzero;stroke:none"
         transform="matrix(0.13333333,0,0,-0.13333333,0,547.02667)" />
      <path
         id="path29"
         d="m 3647.25,2928.57 c -18.51,-9.04 -37.9,-16.13 -57.66,-21.67 l -0.63,2.16 c 19.5,5.98 38.55,13.48 56.6,22.86 l 1.69,-3.35"
         style="fill:#99b6bb;fill-opacity:1;fill-rule:nonzero;stroke:none"
         transform="matrix(0.13333333,0,0,-0.13333333,0,547.02667)" />
      <path
         id="path30"
         d="m 3529.41,2894.8 -29.87,-2.93 29.76,3.65 z"
         style="fill:#99b6bb;fill-opacity:1;fill-rule:nonzero;stroke:none"
         transform="matrix(0.13333333,0,0,-0.13333333,0,547.02667)" />
      <path
         id="path31"
         d="m 1147.72,3565.46 c 0,0 -191.349,-711.07 -171.54,-744.32 19.804,-33.26 488.4,-202.22 640.44,-80.97 0,0 -11.47,111.11 4.09,200.31 15.56,89.2 117.76,520.62 117.76,520.62 l -590.75,104.36"
         style="fill:#ffffff;fill-opacity:1;fill-rule:nonzero;stroke:none"
         transform="matrix(0.13333333,0,0,-0.13333333,0,547.02667)" />
      <path
         id="path32"
         d="m 1514.02,2725.07 c 15.39,12.91 29.58,25.92 42.21,40.5 6.44,7.15 12.39,14.72 18.01,22.61 5.81,7.81 10.72,16.19 16.4,24.61 -1.78,-9.9 -4.93,-19.7 -9.74,-28.65 -4.51,-9.15 -10.5,-17.49 -17.17,-25.18 -6.76,-7.61 -14.3,-14.55 -22.67,-20.3 -8.29,-5.8 -17.29,-10.74 -27.04,-13.59"
         style="fill:#99b6bb;fill-opacity:1;fill-rule:nonzero;stroke:none"
         transform="matrix(0.13333333,0,0,-0.13333333,0,547.02667)" />
      <path
         id="path33"
         d="m 1199.83,3444.45 52.82,-10.68 52.69,-11.1 105.33,-21.94 c 35.08,-7.42 70.28,-14.13 105.49,-20.75 35.25,-6.43 70.57,-12.44 106.38,-15.55 -8.97,-0.04 -17.99,-0.13 -26.99,0.16 l -26.97,1.55 c -17.9,1.82 -35.82,3.74 -53.64,6.24 -35.66,4.86 -71.06,11.34 -106.28,18.56 -35.19,7.4 -70.27,15.21 -105.06,24.27 -34.81,8.93 -69.51,18.31 -103.77,29.24"
         style="fill:#99b6bb;fill-opacity:1;fill-rule:nonzero;stroke:none"
         transform="matrix(0.13333333,0,0,-0.13333333,0,547.02667)" />
      <path
         id="path34"
         d="m 1187.37,3361.5 52.83,-10.68 52.68,-11.09 105.34,-21.94 c 35.07,-7.42 70.27,-14.13 105.48,-20.75 35.25,-6.42 70.58,-12.44 106.39,-15.54 -8.97,-0.05 -17.99,-0.14 -26.99,0.15 l -26.98,1.55 c -17.9,1.82 -35.81,3.74 -53.63,6.24 -35.67,4.86 -71.07,11.34 -106.29,18.56 -35.18,7.39 -70.27,15.21 -105.05,24.27 -34.81,8.93 -69.51,18.31 -103.78,29.23"
         style="fill:#99b6bb;fill-opacity:1;fill-rule:nonzero;stroke:none"
         transform="matrix(0.13333333,0,0,-0.13333333,0,547.02667)" />
      <path
         id="path35"
         d="m 1174.92,3278.57 52.82,-10.68 52.69,-11.1 105.33,-21.94 c 35.08,-7.42 70.28,-14.13 105.49,-20.75 35.25,-6.42 70.57,-12.44 106.38,-15.55 -8.97,-0.04 -17.98,-0.13 -26.99,0.16 l -26.97,1.56 c -17.9,1.81 -35.82,3.73 -53.63,6.23 -35.67,4.86 -71.07,11.34 -106.29,18.56 -35.18,7.4 -70.27,15.21 -105.06,24.27 -34.81,8.93 -69.5,18.31 -103.77,29.24"
         style="fill:#99b6bb;fill-opacity:1;fill-rule:nonzero;stroke:none"
         transform="matrix(0.13333333,0,0,-0.13333333,0,547.02667)" />
      <path
         id="path36"
         d="m 1162.46,3195.62 52.83,-10.67 52.68,-11.1 105.34,-21.94 c 35.08,-7.42 70.28,-14.13 105.49,-20.75 35.25,-6.42 70.57,-12.44 106.38,-15.55 -8.97,-0.04 -17.99,-0.13 -26.99,0.16 l -26.98,1.55 c -17.9,1.82 -35.81,3.74 -53.63,6.24 -35.66,4.86 -71.07,11.34 -106.28,18.56 -35.19,7.4 -70.28,15.22 -105.06,24.27 -34.81,8.93 -69.51,18.31 -103.78,29.23"
         style="fill:#99b6bb;fill-opacity:1;fill-rule:nonzero;stroke:none"
         transform="matrix(0.13333333,0,0,-0.13333333,0,547.02667)" />
      <path
         id="path37"
         d="m 1150.01,3112.68 52.83,-10.67 52.68,-11.1 105.34,-21.94 c 35.08,-7.42 70.28,-14.13 105.49,-20.75 35.24,-6.43 70.57,-12.44 106.38,-15.55 -8.98,-0.04 -17.99,-0.13 -26.99,0.16 l -26.98,1.55 c -17.9,1.82 -35.81,3.74 -53.63,6.24 -35.67,4.86 -71.07,11.34 -106.29,18.56 -35.18,7.4 -70.27,15.21 -105.05,24.27 -34.81,8.93 -69.51,18.31 -103.78,29.23"
         style="fill:#99b6bb;fill-opacity:1;fill-rule:nonzero;stroke:none"
         transform="matrix(0.13333333,0,0,-0.13333333,0,547.02667)" />
      <path
         id="path38"
         d="m 1137.56,3029.74 52.82,-10.67 52.68,-11.11 105.34,-21.93 c 35.08,-7.42 70.28,-14.13 105.49,-20.76 35.25,-6.42 70.57,-12.43 106.38,-15.54 -8.97,-0.04 -17.99,-0.13 -26.99,0.16 l -26.97,1.55 c -17.9,1.82 -35.81,3.74 -53.64,6.24 -35.66,4.86 -71.07,11.34 -106.28,18.56 -35.19,7.4 -70.27,15.22 -105.06,24.27 -34.81,8.93 -69.51,18.31 -103.77,29.23"
         style="fill:#99b6bb;fill-opacity:1;fill-rule:nonzero;stroke:none"
         transform="matrix(0.13333333,0,0,-0.13333333,0,547.02667)" />
      <path
         id="path39"
         d="m 1125.11,2946.8 52.82,-10.67 52.68,-11.11 105.34,-21.93 c 35.08,-7.42 70.28,-14.13 105.49,-20.76 35.25,-6.42 70.57,-12.43 106.38,-15.54 -8.97,-0.04 -17.99,-0.13 -26.99,0.16 l -26.97,1.55 c -17.9,1.82 -35.82,3.74 -53.64,6.24 -35.67,4.86 -71.07,11.34 -106.29,18.56 -35.18,7.4 -70.26,15.22 -105.05,24.27 -34.81,8.93 -69.51,18.3 -103.77,29.23"
         style="fill:#99b6bb;fill-opacity:1;fill-rule:nonzero;stroke:none"
         transform="matrix(0.13333333,0,0,-0.13333333,0,547.02667)" />
      <path
         id="path40"
         d="m 3772,1834.81 c 0,0 187.71,170.96 162.46,256.27 -25.25,85.32 17.95,179.81 -40.29,282.72 -58.25,102.91 -84.76,85.46 -221.69,110.24 -136.93,24.77 -158.03,99.36 -279.36,6.06 -118.94,-91.48 -93.21,-148.62 57.09,-162.06 89.97,-8.04 200.72,17.94 211.06,-145.57 12.65,-200.26 110.73,-347.66 110.73,-347.66"
         style="fill:#5ac587;fill-opacity:1;fill-rule:nonzero;stroke:none"
         transform="matrix(0.13333333,0,0,-0.13333333,0,547.02667)" />
      <path
         id="path41"
         d="m 3850.17,1465.36 c -45.43,33.32 11.76,163.65 99.22,226.11 60.41,43.15 111.4,-5.25 198.33,49.84 61.4,38.92 63.16,80.3 108.67,84.77 53.79,5.27 67.76,-50.87 149.24,-77.49 78.45,-25.64 103.22,14.07 150.52,-12.19 86.76,-48.15 128.45,-251.08 65.67,-304.26 -38.4,-32.54 -109.17,87.54 -204.35,60.51 -47.43,-13.47 -50.26,-47.62 -96.78,-53.76 -65.15,-8.6 -90.4,54.32 -155.57,73.35 -125.95,36.78 -264.16,-84.14 -314.95,-46.88"
         style="fill:#5ac587;fill-opacity:1;fill-rule:nonzero;stroke:none"
         transform="matrix(0.13333333,0,0,-0.13333333,0,547.02667)" />
      <path
         id="path42"
         d="m 3416.44,594.039 c 35.67,120.93 76.49,240.391 122.75,357.77 22.69,58.871 47.73,116.821 73.86,174.281 26.04,57.49 54.34,114.01 85.38,169.09 31.48,54.7 65.52,108.63 108.18,155.78 l 32.36,34.79 c 11.09,11.3 23.09,21.69 34.59,32.57 5.91,5.26 11.41,11 17.65,15.88 l 18.6,14.8 c 12.42,9.82 24.68,19.87 38.1,28.36 51.91,36.24 108.69,65.68 168.63,85.98 59.92,19.75 122.97,32.43 186.09,29.57 -63.14,1.22 -125.54,-13.06 -184.48,-34.19 -59.14,-21.09 -114.98,-51.02 -165.82,-87.66 -13.14,-8.56 -25.12,-18.7 -37.28,-28.59 l -18.3,-14.76 c -6.16,-4.85 -11.57,-10.57 -17.39,-15.81 -11.32,-10.83 -23.15,-21.14 -34.08,-32.38 l -31.86,-34.59 c -41.81,-46.63 -75.24,-100.18 -106.31,-154.69 -31.11,-54.58 -59.57,-110.75 -85.82,-167.95 -26.45,-57.11 -51.23,-115 -74.99,-173.321 -23.82,-58.297 -46.5,-117.078 -67.91,-176.328 -21.78,-59.11 -42.6,-118.602 -61.95,-178.602"
         style="fill:#2a5f57;fill-opacity:1;fill-rule:nonzero;stroke:none"
         transform="matrix(0.13333333,0,0,-0.13333333,0,547.02667)" />
      <path
         id="path43"
         d="m 3539.3,1058.58 c 28.97,104.27 59.17,208.16 89.65,311.97 l 92.52,311.09 c 31.26,103.55 62.32,207.18 90.75,311.46 14.03,52.15 27.57,104.56 36.12,157.8 4.22,26.57 7.19,53.52 5.16,80.35 -1.31,13.34 -4.05,26.6 -9.28,38.97 -5.15,12.42 -13.01,23.65 -22.44,33.35 9.77,-9.34 18.12,-20.33 23.81,-32.73 5.7,-12.39 8.83,-25.82 10.55,-39.33 2.8,-27.14 0.55,-54.45 -2.95,-81.32 -7.63,-53.78 -20.38,-106.54 -33.52,-159.04 -26.97,-104.9 -58.11,-208.57 -88.63,-312.38 l -94.76,-310.43 c -32,-103.34 -64.07,-206.67 -96.98,-309.76"
         style="fill:#2a5f57;fill-opacity:1;fill-rule:nonzero;stroke:none"
         transform="matrix(0.13333333,0,0,-0.13333333,0,547.02667)" />
      <path
         id="path44"
         d="m 3580,971.629 c 0,0 8.45,211.881 77.47,239.301 69.02,27.42 108.76,104.51 206.35,119.36 97.58,14.84 99.8,-11.55 186.68,-88.65 86.88,-77.1 146.71,-52.48 148.05,-180.24 1.3,-125.24 -49.48,-137.83 -135.81,-46.1 -51.68,54.9 -91.74,140.98 -204.39,63.45 C 3720.38,983.77 3580,971.629 3580,971.629"
         style="fill:#5ac587;fill-opacity:1;fill-rule:nonzero;stroke:none"
         transform="matrix(0.13333333,0,0,-0.13333333,0,547.02667)" />
      <path
         id="path45"
         d="m 3443.62,587.449 c 13.45,59.731 29.84,118.821 49.13,177.031 19.29,58.192 42.01,115.301 68.13,170.891 26.88,55.149 57.19,108.999 94.48,157.999 8.89,12.56 19.27,23.97 29.29,35.63 9.64,12 21.17,22.3 31.97,33.22 2.77,2.66 5.46,5.4 8.3,7.98 l 8.96,7.28 17.9,14.5 c 12.1,9.41 25.53,17.04 38.25,25.46 l -18.47,-13.63 c -6.02,-4.68 -12.69,-8.5 -18.14,-13.9 l -17.04,-15.27 -8.5,-7.6 c -2.69,-2.7 -5.23,-5.56 -7.84,-8.32 -10.32,-11.21 -21.42,-21.64 -30.61,-33.84 -9.57,-11.84 -19.46,-23.39 -27.9,-36.1 -35.57,-49.37 -65.64,-102.608 -91.64,-157.721 -26.68,-54.817 -49.14,-111.657 -69.9,-169.079 l -15.14,-43.25 -14.23,-43.582 -13.8,-43.738 -13.2,-43.961"
         style="fill:#2a5f57;fill-opacity:1;fill-rule:nonzero;stroke:none"
         transform="matrix(0.13333333,0,0,-0.13333333,0,547.02667)" />
      <path
         id="path46"
         d="m 2460.94,3250.68 h -319.32 v 278.31 h 319.32 v -278.31"
         style="fill:#76d0e4;fill-opacity:1;fill-rule:nonzero;stroke:none"
         transform="matrix(0.13333333,0,0,-0.13333333,0,547.02667)" />
      <path
         id="path47"
         d="M 2514.16,3370.79 H 2088.4 v 286.94 c 135.94,39.27 289.82,39.27 425.76,0 v -286.94"
         style="fill:#4165ab;fill-opacity:1;fill-rule:nonzero;stroke:none"
         transform="matrix(0.13333333,0,0,-0.13333333,0,547.02667)" />
      <path
         id="path48"
         d="m 2115.25,3640.31 c 15.06,-4.07 30.26,-7.27 45.58,-9.69 15.27,-2.65 30.62,-4.78 46.05,-6.13 30.81,-2.87 61.73,-4.19 92.66,-3.85 15.44,0.6 30.93,0.57 46.35,2 l 23.16,1.59 c 7.69,0.9 15.39,1.68 23.11,2.4 30.86,3.14 61.41,8.58 92.21,13.68 -14.93,-4.41 -29.98,-8.63 -45.14,-12.42 -15.33,-2.94 -30.53,-6.81 -46.04,-8.89 -30.86,-5.43 -62.21,-7.34 -93.52,-8.34 -31.34,-0.11 -62.74,1.5 -93.73,6.23 -30.93,4.75 -61.79,11.43 -90.69,23.42"
         style="fill:#76d0e4;fill-opacity:1;fill-rule:nonzero;stroke:none"
         transform="matrix(0.13333333,0,0,-0.13333333,0,547.02667)" />
      <path
         id="path49"
         d="m 2115.37,3588.83 c 2.4,-32.07 2.84,-63.87 3.97,-95.62 0.37,-15.88 1.07,-31.73 1.92,-47.55 1.07,-15.8 1.82,-31.65 4.62,-47.48 -6.56,14.77 -9.99,30.78 -12.38,46.67 -2.47,15.94 -3.59,32.01 -4.15,48.04 -0.82,32.09 0.56,64.22 6.02,95.94"
         style="fill:#76d0e4;fill-opacity:1;fill-rule:nonzero;stroke:none"
         transform="matrix(0.13333333,0,0,-0.13333333,0,547.02667)" />
      <path
         id="path50"
         d="m 2172.76,3578.02 c 3.62,-30.13 4.58,-60.15 5.44,-90.16 l 0.71,-44.97 0.43,-22.46 c 0.33,-7.44 0.18,-15.02 2.34,-22.25 -7.17,13.66 -8.62,29.34 -10.55,44.21 -1.74,15.06 -2.49,30.15 -2.92,45.23 -0.55,30.17 0.31,60.34 4.55,90.4"
         style="fill:#76d0e4;fill-opacity:1;fill-rule:nonzero;stroke:none"
         transform="matrix(0.13333333,0,0,-0.13333333,0,547.02667)" />
      <path
         id="path51"
         d="m 2237.49,3567.7 c 2.62,-26.92 3.19,-53.54 4.36,-80.11 0.39,-13.29 1.04,-26.54 1.82,-39.77 0.98,-13.23 1.62,-26.47 3.99,-39.78 -6.09,12.16 -9.45,25.55 -11.74,38.86 -2.39,13.35 -3.49,26.85 -4.06,40.31 -0.86,26.93 0.39,53.92 5.63,80.49"
         style="fill:#76d0e4;fill-opacity:1;fill-rule:nonzero;stroke:none"
         transform="matrix(0.13333333,0,0,-0.13333333,0,547.02667)" />
      <path
         id="path52"
         d="m 2479.34,3588.83 c 5.46,-31.72 6.84,-63.85 6.02,-95.94 -0.56,-16.03 -1.68,-32.1 -4.15,-48.04 -2.38,-15.89 -5.82,-31.9 -12.37,-46.67 2.8,15.83 3.54,31.68 4.61,47.48 0.85,15.82 1.55,31.67 1.92,47.55 1.13,31.75 1.57,63.55 3.97,95.62"
         style="fill:#76d0e4;fill-opacity:1;fill-rule:nonzero;stroke:none"
         transform="matrix(0.13333333,0,0,-0.13333333,0,547.02667)" />
      <path
         id="path53"
         d="m 2421.96,3578.02 c 4.23,-30.06 5.09,-60.23 4.54,-90.4 -0.43,-15.08 -1.18,-30.17 -2.92,-45.23 -1.93,-14.87 -3.38,-30.55 -10.55,-44.21 2.16,7.23 2.01,14.81 2.34,22.25 l 0.43,22.46 0.71,44.97 c 0.87,30.01 1.82,60.03 5.45,90.16"
         style="fill:#76d0e4;fill-opacity:1;fill-rule:nonzero;stroke:none"
         transform="matrix(0.13333333,0,0,-0.13333333,0,547.02667)" />
      <path
         id="path54"
         d="m 2357.22,3567.7 c 5.24,-26.57 6.49,-53.56 5.63,-80.49 -0.58,-13.46 -1.67,-26.96 -4.06,-40.31 -2.29,-13.31 -5.65,-26.7 -11.74,-38.86 2.37,13.31 3.02,26.55 3.99,39.78 0.77,13.23 1.43,26.48 1.83,39.77 1.16,26.57 1.73,53.19 4.35,80.11"
         style="fill:#76d0e4;fill-opacity:1;fill-rule:nonzero;stroke:none"
         transform="matrix(0.13333333,0,0,-0.13333333,0,547.02667)" />
      <path
         id="path55"
         d="m 2298.29,3567.7 c 4.17,-26.59 5.16,-53.25 5.13,-79.92 -0.18,-13.33 -0.55,-26.67 -1.69,-40.01 -1.13,-13.28 -2.49,-26.77 -6.42,-39.73 0.06,13.39 -1.2,26.63 -1.39,39.93 -0.45,13.3 -0.49,26.58 -0.49,39.88 0.35,26.59 1.17,53.19 4.86,79.85"
         style="fill:#76d0e4;fill-opacity:1;fill-rule:nonzero;stroke:none"
         transform="matrix(0.13333333,0,0,-0.13333333,0,547.02667)" />
      <path
         id="path56"
         d="m 2362.34,380.602 c -689.2,0 -1247.91,11.308 -1247.91,25.257 0,12.43 442.79,22.75 1026.27,24.871 60.66,-7.808 122.47,-11.839 185.26,-11.839 63.38,0 125.73,4.097 186.93,12.058 618.24,-1.508 1097.37,-12.16 1097.37,-25.09 0,-13.949 -558.71,-25.257 -1247.92,-25.257"
         style="fill:#e3e8ee;fill-opacity:1;fill-rule:nonzero;stroke:none"
         transform="matrix(0.13333333,0,0,-0.13333333,0,547.02667)" />
      <path
         id="path57"
         d="m 2325.96,572.941 c -708.13,0 -1282.18,574.059 -1282.18,1282.179 0,708.13 574.05,1282.18 1282.18,1282.18 708.13,0 1282.18,-574.05 1282.18,-1282.18 0,-708.12 -574.05,-1282.179 -1282.18,-1282.179"
         style="fill:#eef9f8;fill-opacity:1;fill-rule:nonzero;stroke:none"
         transform="matrix(0.13333333,0,0,-0.13333333,0,547.02667)" />
      <path
         id="path58"
         d="m 2609.02,1915.53 c -267.24,0 -483.87,216.64 -483.87,483.88 0,267.23 216.63,483.87 483.87,483.87 267.24,0 483.88,-216.64 483.88,-483.87 0,-267.24 -216.64,-483.88 -483.88,-483.88"
         style="fill:#ffffff;fill-opacity:1;fill-rule:nonzero;stroke:none"
         transform="matrix(0.13333333,0,0,-0.13333333,0,547.02667)" />
      <path
         id="path59"
         d="m 1189.8,1078.47 c 0,0 -226.734,-653.29 -157.86,-671.99 68.87,-18.71 560.83,394.918 560.83,394.918 L 1189.8,1078.47"
         style="fill:#4165ab;fill-opacity:1;fill-rule:nonzero;stroke:none"
         transform="matrix(0.13333333,0,0,-0.13333333,0,547.02667)" />
      <path
         id="path60"
         d="m 3453.88,1078.47 c 0,0 226.73,-653.29 157.86,-671.99 -68.87,-18.71 -560.83,394.918 -560.83,394.918 l 402.97,277.072"
         style="fill:#4165ab;fill-opacity:1;fill-rule:nonzero;stroke:none"
         transform="matrix(0.13333333,0,0,-0.13333333,0,547.02667)" />
      <path
         id="path61"
         d="m 2325.96,572.941 c -708.13,0 -1282.18,574.059 -1282.18,1282.179 0,708.13 574.05,1282.18 1282.18,1282.18 708.13,0 1282.18,-574.05 1282.18,-1282.18 0,-708.12 -574.05,-1282.179 -1282.18,-1282.179 m 0,2718.409 c -793.2,0 -1436.226,-643.02 -1436.226,-1436.23 0,-793.2 643.026,-1436.229 1436.226,-1436.229 793.21,0 1436.23,643.029 1436.23,1436.229 0,793.21 -643.02,1436.23 -1436.23,1436.23"
         style="fill:#4165ab;fill-opacity:1;fill-rule:nonzero;stroke:none"
         transform="matrix(0.13333333,0,0,-0.13333333,0,547.02667)" />
      <path
         id="path62"
         d="m 2353.49,1930.04 c -3.84,1.92 -7.82,3.61 -11.91,5.07 l -3.57,63.38 c 3.98,-2.7 8,-5.33 12.07,-7.91 l 3.41,-60.54"
         style="fill:#cdeef1;fill-opacity:1;fill-rule:nonzero;stroke:none"
         transform="matrix(0.13333333,0,0,-0.13333333,0,547.02667)" />
      <path
         id="path63"
         d="m 2350.08,1990.58 c -4.07,2.58 -8.09,5.21 -12.07,7.91 l -25.26,448.42 5.81,103.15 31.52,-559.48"
         style="fill:#dbf3f7;fill-opacity:1;fill-rule:nonzero;stroke:none"
         transform="matrix(0.13333333,0,0,-0.13333333,0,547.02667)" />
      <path
         id="path64"
         d="m 2263.41,1812.04 h 85.1 l -42.55,755.34 -42.55,-755.34"
         style="fill:#76d0e4;fill-opacity:1;fill-rule:nonzero;stroke:none"
         transform="matrix(0.13333333,0,0,-0.13333333,0,547.02667)" />
      <path
         id="path65"
         d="m 2411.6,1847.49 c -1.04,8.83 -3.17,17.32 -6.24,25.35 l 52.83,66.66 c 7.01,-2.29 14.09,-4.43 21.24,-6.42 l -67.83,-85.59"
         style="fill:#cdeef1;fill-opacity:1;fill-rule:nonzero;stroke:none"
         transform="matrix(0.13333333,0,0,-0.13333333,0,547.02667)" />
      <path
         id="path66"
         d="m 2479.43,1933.08 c -7.15,1.99 -14.23,4.13 -21.24,6.42 l 340.01,429.08 166.45,176.83 -485.22,-612.33"
         style="fill:#dbf3f7;fill-opacity:1;fill-rule:nonzero;stroke:none"
         transform="matrix(0.13333333,0,0,-0.13333333,0,547.02667)" />
      <path
         id="path67"
         d="m 2265.99,1833.87 64.4,-55.64 621.66,784.49 -686.06,-728.85"
         style="fill:#76d0e4;fill-opacity:1;fill-rule:nonzero;stroke:none"
         transform="matrix(0.13333333,0,0,-0.13333333,0,547.02667)" />
      <path
         id="path68"
         d="m 2411.75,1823.43 c -0.71,6.64 -2.03,13.11 -3.9,19.32 l 3.75,4.74 c 0.5,-4.15 0.75,-8.37 0.75,-12.66 0,-3.85 -0.2,-7.65 -0.6,-11.4 m -211.57,0 c -0.4,3.75 -0.61,7.55 -0.61,11.4 0,46.26 29.53,85.63 70.77,100.28 l -1.31,-23.27 c -37.14,-13.75 -64.51,-47.64 -68.85,-88.41 m 153.48,103.58 -0.17,3.03 c 0.68,-0.35 1.36,-0.69 2.04,-1.05 l -1.87,-1.98"
         style="fill:#cdeef1;fill-opacity:1;fill-rule:nonzero;stroke:none"
         transform="matrix(0.13333333,0,0,-0.13333333,0,547.02667)" />
      <path
         id="path69"
         d="m 2342.69,1915.36 -1.11,19.75 c 4.09,-1.46 8.07,-3.15 11.91,-5.07 l 0.17,-3.03 -10.97,-11.65"
         style="fill:#b1e3eb;fill-opacity:1;fill-rule:nonzero;stroke:none"
         transform="matrix(0.13333333,0,0,-0.13333333,0,547.02667)" />
      <path
         id="path70"
         d="m 2269.03,1911.84 1.31,23.27 c 11.14,3.95 23.13,6.11 35.62,6.11 12.5,0 24.48,-2.16 35.62,-6.11 l 1.11,-19.75 -2.43,-2.59 c -10.76,3.67 -22.3,5.65 -34.3,5.65 -12.98,0 -25.43,-2.32 -36.93,-6.58"
         style="fill:#69c6df;fill-opacity:1;fill-rule:nonzero;stroke:none"
         transform="matrix(0.13333333,0,0,-0.13333333,0,547.02667)" />
      <path
         id="path71"
         d="m 2407.85,1842.75 c -2.29,7.59 -5.39,14.82 -9.22,21.59 l 6.73,8.5 c 3.07,-8.03 5.2,-16.52 6.24,-25.35 l -3.75,-4.74"
         style="fill:#b1e3eb;fill-opacity:1;fill-rule:nonzero;stroke:none"
         transform="matrix(0.13333333,0,0,-0.13333333,0,547.02667)" />
      <path
         id="path72"
         d="m 2398.63,1864.34 c -12.76,22.54 -33.49,39.96 -58.37,48.43 l 2.43,2.59 10.97,11.65 1.87,1.98 c 22.71,-11.98 40.57,-31.94 49.83,-56.15 l -6.73,-8.5"
         style="fill:#69c6df;fill-opacity:1;fill-rule:nonzero;stroke:none"
         transform="matrix(0.13333333,0,0,-0.13333333,0,547.02667)" />
      <path
         id="path73"
         d="m 2305.96,1688.04 c -58.76,0 -106.39,47.63 -106.39,106.39 0,2.96 0.12,5.9 0.36,8.8 4.48,-54.64 50.24,-97.58 106.03,-97.58 55.79,0 101.55,42.94 106.03,97.58 0.24,-2.9 0.36,-5.84 0.36,-8.8 0,-58.76 -47.64,-106.39 -106.39,-106.39"
         style="fill:#cdeef1;fill-opacity:1;fill-rule:nonzero;stroke:none"
         transform="matrix(0.13333333,0,0,-0.13333333,0,547.02667)" />
      <path
         id="path74"
         d="m 2412.35,1812.04 c 0,-58.76 -47.64,-106.39 -106.39,-106.39 -58.76,0 -106.39,47.63 -106.39,106.39 0,58.75 47.63,106.38 106.39,106.38 58.75,0 106.39,-47.63 106.39,-106.38"
         style="fill:#76d0e4;fill-opacity:1;fill-rule:nonzero;stroke:none"
         transform="matrix(0.13333333,0,0,-0.13333333,0,547.02667)" />
      <path
         id="path75"
         d="m 2307.64,1743.85 c -20.41,0 -42.24,13.13 -49.12,35.84 -7.54,24.86 5.83,51.29 28.8,61.2 6.5,2.81 13.37,4.12 20.15,4.12 15.52,0 30.52,-6.89 39.25,-18.52 19.53,-26.03 4.77,-71.95 -27,-81 -3.88,-1.1 -7.95,-1.64 -12.08,-1.64"
         style="fill:#69c6df;fill-opacity:1;fill-rule:nonzero;stroke:none"
         transform="matrix(0.13333333,0,0,-0.13333333,0,547.02667)" />
      <path
         id="path76"
         d="m 2325.96,3070.6 c 6.21,-10.21 9.43,-20.43 11.75,-30.64 2.21,-10.21 3.23,-20.43 3.24,-30.64 0.03,-10.21 -1,-20.43 -3.2,-30.64 -2.31,-10.21 -5.55,-20.43 -11.79,-30.64 -6.24,10.21 -9.48,20.43 -11.79,30.64 -2.2,10.21 -3.22,20.43 -3.2,30.64 0.01,10.21 1.04,20.43 3.24,30.64 2.32,10.21 5.54,20.43 11.75,30.64"
         style="fill:#76d0e4;fill-opacity:1;fill-rule:nonzero;stroke:none"
         transform="matrix(0.13333333,0,0,-0.13333333,0,547.02667)" />
      <path
         id="path77"
         d="m 1718.23,2907.75 c 10.47,-5.74 18.37,-12.97 25.49,-20.65 7.02,-7.75 13.01,-16.08 18.13,-24.92 5.13,-8.83 9.34,-18.19 12.55,-28.13 3.1,-10 5.41,-20.47 5.1,-32.43 -10.51,5.72 -18.42,12.95 -25.53,20.63 -7.01,7.75 -13.01,16.08 -18.09,24.94 -5.1,8.85 -9.31,18.21 -12.52,28.15 -3.09,10.01 -5.41,20.47 -5.13,32.41"
         style="fill:#76d0e4;fill-opacity:1;fill-rule:nonzero;stroke:none"
         transform="matrix(0.13333333,0,0,-0.13333333,0,547.02667)" />
      <path
         id="path78"
         d="m 1273.33,2462.86 c 11.95,0.27 22.41,-2.05 32.41,-5.14 9.95,-3.2 19.3,-7.42 28.15,-12.51 8.86,-5.09 17.19,-11.08 24.94,-18.1 7.69,-7.1 14.91,-15.01 20.64,-25.53 -11.97,-0.3 -22.43,2 -32.44,5.1 -9.94,3.21 -19.3,7.43 -28.13,12.55 -8.84,5.13 -17.17,11.12 -24.91,18.13 -7.69,7.12 -14.92,15.02 -20.66,25.5"
         style="fill:#76d0e4;fill-opacity:1;fill-rule:nonzero;stroke:none"
         transform="matrix(0.13333333,0,0,-0.13333333,0,547.02667)" />
      <path
         id="path79"
         d="m 1110.49,1855.12 c 10.21,6.21 20.42,9.44 30.64,11.76 10.21,2.2 20.42,3.22 30.64,3.24 10.21,0.02 20.42,-1 30.64,-3.2 10.21,-2.32 20.42,-5.55 30.64,-11.8 -10.22,-6.25 -20.43,-9.48 -30.64,-11.79 -10.22,-2.2 -20.43,-3.23 -30.64,-3.21 -10.22,0.02 -20.43,1.05 -30.64,3.24 -10.22,2.33 -20.43,5.55 -30.64,11.76"
         style="fill:#76d0e4;fill-opacity:1;fill-rule:nonzero;stroke:none"
         transform="matrix(0.13333333,0,0,-0.13333333,0,547.02667)" />
      <path
         id="path80"
         d="m 1273.33,1247.39 c 5.74,10.48 12.97,18.38 20.66,25.5 7.74,7.01 16.07,12.99 24.91,18.12 8.83,5.13 18.19,9.35 28.13,12.55 10.01,3.1 20.47,5.41 32.44,5.11 -5.73,-10.52 -12.95,-18.43 -20.64,-25.54 -7.75,-7.01 -16.08,-13.01 -24.94,-18.1 -8.85,-5.08 -18.2,-9.3 -28.15,-12.51 -10,-3.09 -20.46,-5.41 -32.41,-5.13"
         style="fill:#76d0e4;fill-opacity:1;fill-rule:nonzero;stroke:none"
         transform="matrix(0.13333333,0,0,-0.13333333,0,547.02667)" />
      <path
         id="path81"
         d="m 1718.23,802.492 c -0.28,11.949 2.04,22.406 5.13,32.406 3.21,9.954 7.42,19.301 12.52,28.153 5.08,8.859 11.08,17.199 18.09,24.937 7.11,7.692 15.02,14.922 25.53,20.641 0.31,-11.969 -2,-22.43 -5.1,-32.43 -3.21,-9.949 -7.42,-19.308 -12.55,-28.14 -5.12,-8.84 -11.11,-17.168 -18.13,-24.907 -7.12,-7.691 -15.02,-14.922 -25.49,-20.66"
         style="fill:#76d0e4;fill-opacity:1;fill-rule:nonzero;stroke:none"
         transform="matrix(0.13333333,0,0,-0.13333333,0,547.02667)" />
      <path
         id="path82"
         d="m 2325.96,639.641 c -6.21,10.218 -9.43,20.429 -11.75,30.648 -2.2,10.211 -3.23,20.422 -3.25,30.633 -0.01,10.219 1.01,20.43 3.21,30.648 2.31,10.211 5.54,20.422 11.79,30.629 6.25,-10.207 9.48,-20.418 11.79,-30.629 2.2,-10.218 3.23,-20.429 3.21,-30.648 -0.02,-10.211 -1.04,-20.422 -3.25,-30.633 -2.32,-10.219 -5.54,-20.43 -11.75,-30.648"
         style="fill:#76d0e4;fill-opacity:1;fill-rule:nonzero;stroke:none"
         transform="matrix(0.13333333,0,0,-0.13333333,0,547.02667)" />
      <path
         id="path83"
         d="m 2933.7,802.492 c -10.48,5.738 -18.38,12.969 -25.5,20.66 -7.01,7.739 -13.01,16.067 -18.12,24.907 -5.13,8.832 -9.35,18.191 -12.55,28.14 -3.11,10 -5.41,20.461 -5.11,32.43 10.52,-5.719 18.43,-12.949 25.54,-20.641 7.01,-7.738 13,-16.078 18.08,-24.937 5.1,-8.852 9.32,-18.199 12.52,-28.153 3.09,-10 5.41,-20.457 5.14,-32.406"
         style="fill:#76d0e4;fill-opacity:1;fill-rule:nonzero;stroke:none"
         transform="matrix(0.13333333,0,0,-0.13333333,0,547.02667)" />
      <path
         id="path84"
         d="m 3378.59,1247.39 c -11.94,-0.28 -22.4,2.04 -32.41,5.13 -9.94,3.21 -19.3,7.43 -28.15,12.51 -8.86,5.09 -17.19,11.09 -24.94,18.1 -7.68,7.11 -14.91,15.02 -20.63,25.54 11.96,0.3 22.42,-2.01 32.43,-5.11 9.94,-3.2 19.3,-7.42 28.14,-12.55 8.83,-5.13 17.16,-11.11 24.91,-18.12 7.68,-7.12 14.91,-15.02 20.65,-25.5"
         style="fill:#76d0e4;fill-opacity:1;fill-rule:nonzero;stroke:none"
         transform="matrix(0.13333333,0,0,-0.13333333,0,547.02667)" />
      <path
         id="path85"
         d="m 3541.43,1855.12 c -10.2,-6.21 -20.42,-9.43 -30.63,-11.76 -10.22,-2.19 -20.43,-3.22 -30.65,-3.24 -10.2,-0.02 -20.42,1.01 -30.63,3.21 -10.22,2.31 -20.43,5.54 -30.64,11.79 10.21,6.25 20.42,9.48 30.64,11.8 10.21,2.2 20.43,3.22 30.63,3.2 10.22,-0.02 20.43,-1.04 30.65,-3.24 10.21,-2.32 20.43,-5.55 30.63,-11.76"
         style="fill:#76d0e4;fill-opacity:1;fill-rule:nonzero;stroke:none"
         transform="matrix(0.13333333,0,0,-0.13333333,0,547.02667)" />
      <path
         id="path86"
         d="m 3378.59,2462.86 c -5.74,-10.48 -12.97,-18.38 -20.65,-25.5 -7.75,-7.01 -16.08,-13 -24.91,-18.13 -8.84,-5.12 -18.2,-9.34 -28.14,-12.55 -10.01,-3.1 -20.47,-5.4 -32.43,-5.1 5.72,10.52 12.95,18.42 20.63,25.53 7.75,7.02 16.08,13.01 24.94,18.1 8.85,5.09 18.21,9.31 28.15,12.51 10.01,3.09 20.47,5.41 32.41,5.14"
         style="fill:#76d0e4;fill-opacity:1;fill-rule:nonzero;stroke:none"
         transform="matrix(0.13333333,0,0,-0.13333333,0,547.02667)" />
      <path
         id="path87"
         d="m 2933.7,2907.75 c 0.27,-11.94 -2.05,-22.4 -5.14,-32.41 -3.2,-9.94 -7.42,-19.3 -12.52,-28.15 -5.08,-8.86 -11.07,-17.19 -18.08,-24.94 -7.11,-7.68 -15.02,-14.91 -25.54,-20.63 -0.3,11.96 2,22.43 5.11,32.43 3.2,9.94 7.42,19.3 12.55,28.13 5.11,8.84 11.11,17.17 18.12,24.92 7.12,7.68 15.02,14.91 25.5,20.65"
         style="fill:#76d0e4;fill-opacity:1;fill-rule:nonzero;stroke:none"
         transform="matrix(0.13333333,0,0,-0.13333333,0,547.02667)" />
      <path
         id="path88"
         d="m 3607.66,1823.15 c -18.33,692.14 -585.13,1247.6 -1281.7,1247.6 -453.12,0 -851.34,-235.06 -1079.39,-589.88 -10.63,3.72 -20.69,5.24 -30.74,5.24 -2.14,0 -4.27,-0.07 -6.41,-0.2 220.19,388.93 637.7,651.39 1116.54,651.39 218.7,0 424.58,-54.74 604.74,-151.29 0.03,-0.04 0.06,-0.08 0.09,-0.12 26.2,-14.04 51.84,-28.98 76.9,-44.75 0.04,0.01 0.07,0.02 0.11,0.04 360.67,-226.9 600.34,-628.48 600.34,-1086.06 v 0 c 0,-10.69 -0.19,-21.35 -0.48,-31.97 m -2563.4,0 c -0.29,10.62 -0.48,21.28 -0.48,31.97 v 0 c 0,154.78 27.43,303.16 77.68,440.53 9.08,2.38 18.56,3.64 28.32,4.17 -63.82,-146.65 -101.04,-307.61 -105.52,-476.67"
         style="fill:#cdeef1;fill-opacity:1;fill-rule:nonzero;stroke:none"
         transform="matrix(0.13333333,0,0,-0.13333333,0,547.02667)" />
      <path
         id="path89"
         d="m 2258.52,1796.8 c 8.28,-27.31 38.16,-40.76 61.19,-34.2 31.78,9.05 46.54,54.97 27.01,81 -12.53,16.71 -38.01,23.63 -59.4,14.4 -22.97,-9.91 -36.34,-36.34 -28.8,-61.2"
         style="fill:#4165ab;fill-opacity:1;fill-rule:nonzero;stroke:none"
         transform="matrix(0.13333333,0,0,-0.13333333,0,547.02667)" />
      <path
         id="path90"
         d="m 2609.02,3224.96 c 95.08,-15.89 187.41,-46.33 276.06,-84.32 88.75,-38.1 172.93,-86.56 251.8,-142.36 39.11,-28.4 76.47,-59.12 112.41,-91.41 35.46,-32.8 69.57,-67.12 100.98,-103.82 62.89,-73.31 116.64,-154.29 159.91,-240.33 -24.05,41.71 -48.34,83.28 -76.62,122.19 -27.09,39.69 -57.55,76.94 -89.08,113.07 -32.12,35.67 -65.76,69.92 -101.3,102.15 -35.89,31.83 -73.17,62.07 -112.14,90.05 -77.83,56.07 -161.47,104.07 -249.06,143.45 -43.72,19.85 -88.45,37.53 -134.02,52.8 -45.47,15.53 -91.76,28.9 -138.94,38.53"
         style="fill:#76d0e4;fill-opacity:1;fill-rule:nonzero;stroke:none"
         transform="matrix(0.13333333,0,0,-0.13333333,0,547.02667)" />
      <path
         id="path91"
         d="m 2304.12,513.602 c -96.38,-1.59 -192.71,11.609 -286.77,32.91 -94.18,21.379 -185.75,53.789 -273.43,94.359 -43.6,20.84 -85.91,44.301 -127.11,69.527 -40.83,25.832 -80.58,53.403 -118.13,83.801 -75.13,60.711 -142.67,130.61 -200.82,207.381 31.22,-36.67 62.64,-73.15 97.5,-106.279 33.83,-34.129 70.54,-65.25 108.1,-95.071 38.05,-29.25 77.34,-56.839 118.13,-82.089 41.06,-24.801 83.21,-47.782 126.61,-68.243 86.7,-41.039 177.65,-73.089 270.92,-95.949 46.6,-11.59 93.8,-20.867 141.38,-27.629 47.53,-7.031 95.47,-11.789 143.62,-12.718"
         style="fill:#76d0e4;fill-opacity:1;fill-rule:nonzero;stroke:none"
         transform="matrix(0.13333333,0,0,-0.13333333,0,547.02667)" />
      <path
         id="path92"
         d="m 2754.64,2313.6 c 3.72,-3.62 5,-3.09 7.41,-6.68 7.73,-11.48 33.04,-20.56 47.44,-25.98 24.87,-19.89 64.57,-59.77 73.41,-20.75 7.83,34.55 14.29,51.81 8.11,72.09 -0.37,2.05 -15.1,11.38 -16.34,13.67 -11.96,22.07 -23.58,44.95 -37.49,64.48 -20.48,28.74 -47.37,12.58 -43.02,4.03 1.36,-2.66 49.27,-23.39 40.13,-17.64 -10.94,16.52 -10.2,13.7 -22.28,22.66 -24.52,18.2 -51.37,-1.43 -30.58,-14.69 3.21,-2.05 15.91,-1.79 21.73,-3.47 1.1,-0.31 1.91,-0.74 2.3,-1.33 0.46,-0.7 -10.04,6.59 -15.77,10.17 -25.81,16.12 -43.18,-8.84 -35.85,-18.64 2.69,-3.61 22,2.12 25.13,-0.98 2.77,-2.73 -20.44,14.25 -27.82,8.87 -18.82,-13.71 -12.95,-49.22 -7.6,-58.02 l 19.13,17.97 c -0.89,1.4 7.48,-12.07 10.59,-18.93 3.3,-9.52 2.86,-8.42 -1.31,-4.97"
         style="fill:#f9aa91;fill-opacity:1;fill-rule:nonzero;stroke:none"
         transform="matrix(0.13333333,0,0,-0.13333333,0,547.02667)" />
      <path
         id="path93"
         d="m 2754.64,2400.46 c 4.22,1.07 8.69,0.69 12.96,-0.46 4.29,-1.15 8.31,-3.48 11.64,-6.56 3.35,-3.18 5.56,-7.11 7.46,-10.73 1.96,-3.71 3.87,-7.47 5.31,-11.53 -3.17,2.92 -5.88,6.14 -8.53,9.42 -2.76,3.31 -4.84,6.7 -7.68,9.21 -5.57,5.34 -12.86,8.67 -21.16,10.65"
         style="fill:#e07766;fill-opacity:1;fill-rule:nonzero;stroke:none"
         transform="matrix(0.13333333,0,0,-0.13333333,0,547.02667)" />
      <path
         id="path94"
         d="m 2774.97,2415.37 c 4.24,-0.37 8.37,-1.28 12.49,-2.28 4.25,-1.21 7.96,-1.68 12.41,-4.19 3.8,-2.97 6.25,-6.39 8.51,-10.03 2.21,-3.63 4.17,-7.38 5.5,-11.47 -3.08,2.97 -5.81,6.12 -8.58,9.16 -2.79,2.92 -5.49,6.21 -8.34,8.28 -1,0.94 -3.43,1.47 -5.2,2.25 -1.89,0.81 -3.82,1.49 -5.67,2.43 -3.75,1.71 -7.48,3.51 -11.12,5.85"
         style="fill:#e07766;fill-opacity:1;fill-rule:nonzero;stroke:none"
         transform="matrix(0.13333333,0,0,-0.13333333,0,547.02667)" />
      <path
         id="path95"
         d="m 2798.78,2425.9 c 3.67,-0.74 7.03,-2.03 10.39,-3.29 3.31,-1.31 6.56,-2.86 9.64,-4.3 l 1.04,-0.45 0.52,-0.2 1.3,-0.64 c 1.09,-0.83 1.7,-1.67 2.27,-2.46 1.17,-1.58 2.05,-3.2 2.83,-4.88 1.62,-3.28 2.94,-6.67 3.78,-10.27 -2.49,2.73 -4.67,5.58 -6.83,8.36 l -3.3,3.92 -1.48,1.36 0.11,-0.04 -0.75,0.24 -1.45,0.53 c -3.45,1.48 -6.54,3.26 -9.57,5.25 -2.97,2.07 -5.9,4.17 -8.5,6.87"
         style="fill:#e07766;fill-opacity:1;fill-rule:nonzero;stroke:none"
         transform="matrix(0.13333333,0,0,-0.13333333,0,547.02667)" />
      <path
         id="path96"
         d="m 3536.51,33.6289 c -213.97,0 -387.43,11.3125 -387.43,25.2617 0,13.9492 173.46,25.2578 387.43,25.2578 213.98,0 387.43,-11.3086 387.43,-25.2578 0,-13.9492 -173.45,-25.2617 -387.43,-25.2617"
         style="fill:#e3e8ee;fill-opacity:1;fill-rule:nonzero;stroke:none"
         transform="matrix(0.13333333,0,0,-0.13333333,0,547.02667)" />
      <path
         id="path97"
         d="m 3753.1,1186.02 c -1.98,-17.8 -7.72,-43.51 -11.88,-63.97 -5.38,-26.54 -18.9,-25.77 -17.91,-14.92 0.36,4.01 8.23,66.34 9.16,70.16 0.82,3.35 -3.17,2.92 -4.62,-10.48 -0.04,-0.05 -3.76,-15.93 -6.45,-30.08 -6.56,-34.45 -18.92,-26.82 -18.97,-17.65 -0.02,3.38 4.52,58.4 4.59,61.73 0.03,1.48 -1.42,25.16 -2.26,31.81 -2.48,11.19 -4.48,12.69 -6.04,6.85 -3.33,-27.42 -9.25,-44.84 -17.2,-39.75 -6.52,4.18 -1.72,33.08 -0.9,53.08 0.5,12.31 9.99,38.91 18.38,49.74 9.58,26.69 26.54,67.55 51.45,42.08 22.06,-22.53 36.85,-54.36 41.65,-72.61 0.66,-1.72 1.39,-6.92 1.52,-9.23 1.24,-22.32 0.25,-35.7 -1.2,-57.01 -2.12,-31.35 -12.94,-39.29 -13.63,-30.77 -0.22,2.64 2.8,51.96 -1.45,43.34 -0.57,-17.64 -6.89,-38.79 -9.27,-59.24 -3.13,-27.01 -16.06,-24.85 -16,-13.94 0.03,4.01 4.78,53.36 4.89,57.32 0.02,0.74 0.24,5.72 -1.96,6.01 -1.02,0.14 -1.73,-1.22 -1.9,-2.47"
         style="fill:#f9aa91;fill-opacity:1;fill-rule:nonzero;stroke:none"
         transform="matrix(0.13333333,0,0,-0.13333333,0,547.02667)" />
      <path
         id="path98"
         d="m 2877.98,2332.39 258.4,-215.92 -31.55,17.14 244.35,-58.47 -27.05,-194.06 -249.48,118.02 -20.15,4.82 -11.4,12.31 -228.75,247.12 65.63,69.04"
         style="fill:#fabb43;fill-opacity:1;fill-rule:nonzero;stroke:none"
         transform="matrix(0.13333333,0,0,-0.13333333,0,547.02667)" />
      <path
         id="path99"
         d="m 3616.54,1415.07 c 0,0 86.27,-356.84 106.63,-659.922 0,0 -78.3,-65.648 -151.77,-76.109 0,0 -127.12,282.551 -224.76,553.401 l 269.9,182.63"
         style="fill:#203763;fill-opacity:1;fill-rule:nonzero;stroke:none"
         transform="matrix(0.13333333,0,0,-0.13333333,0,547.02667)" />
      <path
         id="path100"
         d="m 3536.51,1338.23 c 0,0 -80.38,-353.839 -210.49,-654.82 0,0 -89.29,-14.398 -159.78,9.07 0,0 26.61,435.96 72.19,741.19 l 298.08,-95.44"
         style="fill:#203763;fill-opacity:1;fill-rule:nonzero;stroke:none"
         transform="matrix(0.13333333,0,0,-0.13333333,0,547.02667)" />
      <path
         id="path101"
         d="m 3375.49,2101.76 c 19.97,13.08 12.08,58.8 10.32,83.34 l 118.47,90.91 c 0.46,-3.09 0.53,-98.06 1.02,-101.23 6.79,-43.79 82.87,-91.78 90.59,-96.1 46.33,-25.95 -20.89,-261.65 -255.86,-132.3 -1.02,0.52 -1.99,1.1 -2.96,1.71 -47.09,26.63 -1.88,127.27 38.42,153.67"
         style="fill:#f9aa91;fill-opacity:1;fill-rule:nonzero;stroke:none"
         transform="matrix(0.13333333,0,0,-0.13333333,0,547.02667)" />
      <path
         id="path102"
         d="m 3216.64,1867.87 c 1.05,20.15 8.81,143.13 81.7,193.94 26.99,18.81 77.14,39.96 77.15,39.95 4.75,-14.25 8.94,-39.95 51.99,-40.64 91.01,-1.46 115.03,58.2 115.03,58.2 59.57,-46.83 78.01,-40.68 95.73,-56.13 56.31,-49.08 95.57,-72.16 22.96,-258.6 l -45.87,-217.88 22.94,-194.94 c -204.56,-97.12 -335.11,-93.09 -406.74,-2.18 0,0 -26.37,260.4 -14.89,478.28"
         style="fill:#fabb43;fill-opacity:1;fill-rule:nonzero;stroke:none"
         transform="matrix(0.13333333,0,0,-0.13333333,0,547.02667)" />
      <path
         id="path103"
         d="m 3480.24,2051.41 -68.59,-75.05 -42.98,73.89 z"
         style="fill:#ffffff;fill-opacity:1;fill-rule:nonzero;stroke:none"
         transform="matrix(0.13333333,0,0,-0.13333333,0,547.02667)" />
      <path
         id="path104"
         d="m 3445.42,2047.11 c 0,0 -24.6,-39.57 -60.85,4.89 l 33.67,9.73 27.18,-14.62"
         style="fill:#203763;fill-opacity:1;fill-rule:nonzero;stroke:none"
         transform="matrix(0.13333333,0,0,-0.13333333,0,547.02667)" />
      <path
         id="path105"
         d="m 3782.92,1277.91 c 0.3,1.51 0.67,3.39 1.09,5.46 -0.47,-2.34 -0.83,-4.12 -1.09,-5.46"
         style="fill:#fabb43;fill-opacity:1;fill-rule:nonzero;stroke:none"
         transform="matrix(0.13333333,0,0,-0.13333333,0,547.02667)" />
      <path
         id="path106"
         d="m 3782.27,1274.7 v 0"
         style="fill:#fabb43;fill-opacity:1;fill-rule:nonzero;stroke:none"
         transform="matrix(0.13333333,0,0,-0.13333333,0,547.02667)" />
      <path
         id="path107"
         d="m 3782.27,1274.7 0.28,1.37 -0.28,-1.37"
         style="fill:#fabb43;fill-opacity:1;fill-rule:nonzero;stroke:none"
         transform="matrix(0.13333333,0,0,-0.13333333,0,547.02667)" />
      <path
         id="path108"
         d="m 3784.01,1283.37 c 0.2,1.02 0.42,2.12 0.67,3.35 -0.23,-1.13 -0.45,-2.26 -0.67,-3.35"
         style="fill:#fabb43;fill-opacity:1;fill-rule:nonzero;stroke:none"
         transform="matrix(0.13333333,0,0,-0.13333333,0,547.02667)" />
      <path
         id="path109"
         d="m 3782.55,1276.07 0.37,1.84 -0.37,-1.84"
         style="fill:#fabb43;fill-opacity:1;fill-rule:nonzero;stroke:none"
         transform="matrix(0.13333333,0,0,-0.13333333,0,547.02667)" />
      <path
         id="path110"
         d="m 3784.68,1286.72 0.43,2.16 -0.43,-2.16"
         style="fill:#fabb43;fill-opacity:1;fill-rule:nonzero;stroke:none"
         transform="matrix(0.13333333,0,0,-0.13333333,0,547.02667)" />
      <path
         id="path111"
         d="m 3834.52,1657.71 c -25.56,64.31 -64.95,208.52 -115.35,318.83 -46.54,101.86 -180.86,168.88 -132.59,-52.82 15.08,-69.22 69.55,-213.07 116.92,-300.8 l -8.31,-324.72 c 22.52,-1.84 92.15,1.83 92.15,1.83 11.47,57.34 47.18,357.68 47.18,357.68"
         style="fill:#fabb43;fill-opacity:1;fill-rule:nonzero;stroke:none"
         transform="matrix(0.13333333,0,0,-0.13333333,0,547.02667)" />
      <path
         id="path112"
         d="m 3787.07,1298.66 -0.44,-2.17 0.44,2.17"
         style="fill:#fabb43;fill-opacity:1;fill-rule:nonzero;stroke:none"
         transform="matrix(0.13333333,0,0,-0.13333333,0,547.02667)" />
      <path
         id="path113"
         d="m 3785.11,1288.88 c 0.37,1.85 0.77,3.83 1.22,6.11 -0.36,-1.8 -0.78,-3.92 -1.22,-6.11"
         style="fill:#fabb43;fill-opacity:1;fill-rule:nonzero;stroke:none"
         transform="matrix(0.13333333,0,0,-0.13333333,0,547.02667)" />
      <path
         id="path114"
         d="m 3787.34,1300.03 -0.27,-1.37 0.27,1.37"
         style="fill:#fabb43;fill-opacity:1;fill-rule:nonzero;stroke:none"
         transform="matrix(0.13333333,0,0,-0.13333333,0,547.02667)" />
      <path
         id="path115"
         d="m 3690.98,1297.88 c 0,0 71.25,5.26 99.98,11.49 0,0 6.25,-29.02 -4.99,-39.45 -11.23,-10.42 -80.67,-14.72 -89.22,-5.55 -7.74,8.3 -5.77,33.51 -5.77,33.51"
         style="fill:#efefed;fill-opacity:1;fill-rule:nonzero;stroke:none"
         transform="matrix(0.13333333,0,0,-0.13333333,0,547.02667)" />
      <path
         id="path116"
         d="m 3702.5,1278.25 c 2.26,-0.96 4.88,0.1 5.84,2.37 0.96,2.27 -0.11,4.88 -2.38,5.84 -2.26,0.96 -4.88,-0.11 -5.83,-2.37 -0.96,-2.27 0.1,-4.89 2.37,-5.84"
         style="fill:#fabb43;fill-opacity:1;fill-rule:nonzero;stroke:none"
         transform="matrix(0.13333333,0,0,-0.13333333,0,547.02667)" />
      <path
         id="path117"
         d="m 2907.49,2322.52 c 0,0 -57.74,-62.04 -77.7,-90.63 0,0 -28.83,20.21 -27.47,38.34 1.36,18.13 58.3,77.87 73.14,76.78 13.42,-0.98 32.03,-24.49 32.03,-24.49"
         style="fill:#efefed;fill-opacity:1;fill-rule:nonzero;stroke:none"
         transform="matrix(0.13333333,0,0,-0.13333333,0,547.02667)" />
      <path
         id="path118"
         d="m 2824.51,2270.12 c -2.74,-0.99 -4.16,-4.02 -3.16,-6.77 0.99,-2.74 4.02,-4.16 6.76,-3.16 2.75,1 4.16,4.02 3.17,6.77 -1,2.74 -4.03,4.16 -6.77,3.16"
         style="fill:#fabb43;fill-opacity:1;fill-rule:nonzero;stroke:none"
         transform="matrix(0.13333333,0,0,-0.13333333,0,547.02667)" />
      <path
         id="path119"
         d="m 3447.12,978.41 c -5.23,7.699 -9.94,15.649 -14.8,23.53 -4.73,7.94 -9.25,15.99 -13.76,24.05 -8.79,16.22 -17.4,32.54 -25.4,49.16 l 2.08,-2.12 c -24.63,13.39 -48.89,27.48 -72.1,43.57 26.38,-10.09 51.7,-22.17 76.65,-34.95 l 1.34,-0.68 0.75,-1.44 c 8.54,-16.36 16.46,-33.02 24.19,-49.77 3.76,-8.44 7.51,-16.87 11.04,-25.42 3.42,-8.598 6.96,-17.149 10.01,-25.93"
         style="fill:#080b0e;fill-opacity:1;fill-rule:nonzero;stroke:none"
         transform="matrix(0.13333333,0,0,-0.13333333,0,547.02667)" />
      <path
         id="path120"
         d="m 3845.08,306.73 -275.58,376.051 107.85,139.168 c 0,0 96.26,-79.539 130.9,-159.14 69.43,-159.539 110.68,-246.09 134.92,-293.02 C 3914.99,345 3879.71,318.93 3845.08,306.73"
         style="fill:#203763;fill-opacity:1;fill-rule:nonzero;stroke:none"
         transform="matrix(0.13333333,0,0,-0.13333333,0,547.02667)" />
      <path
         id="path121"
         d="m 3892.73,241.699 -47.65,65.031 c 34.63,12.2 69.91,38.27 98.09,63.059 27.5,-53.238 33.1,-55.5 33.1,-55.5 0,0 -17.92,-50.59 -83.54,-72.59"
         style="fill:#f9aa91;fill-opacity:1;fill-rule:nonzero;stroke:none"
         transform="matrix(0.13333333,0,0,-0.13333333,0,547.02667)" />
      <path
         id="path122"
         d="m 3119.06,211 51.22,504.66 159.97,20.121 c 0,0 8.24,-207.812 -18.96,-290.242 -39.52,-119.75 -62.25,-197.398 -75.25,-247.719 -35.6,0.571 -80.44,3.559 -116.98,13.18"
         style="fill:#203763;fill-opacity:1;fill-rule:nonzero;stroke:none"
         transform="matrix(0.13333333,0,0,-0.13333333,0,547.02667)" />
      <path
         id="path123"
         d="m 3220.55,126.66 c 0,0 -49.06,-38.4491 -110.78,-7.148 l 9.29,91.488 c 36.54,-9.621 81.38,-12.609 116.98,-13.18 -15.98,-68.16 -15.49,-71.16 -15.49,-71.16"
         style="fill:#f9aa91;fill-opacity:1;fill-rule:nonzero;stroke:none"
         transform="matrix(0.13333333,0,0,-0.13333333,0,547.02667)" />
      <path
         id="path124"
         d="m 3382.67,2439.21 c 0,0 -45.34,-27.14 -44.02,-77.25 0.33,-12.7 -15.3,-76.89 -15.3,-76.89 -7.86,-79.49 40.95,-132.42 59.78,-133.1 45.42,-1.65 82.44,20.98 104.92,42.41 41.27,39.37 66.06,173.28 33.75,217.29 -43.42,59.14 -117.1,54.04 -139.13,27.54"
         style="fill:#f9aa91;fill-opacity:1;fill-rule:nonzero;stroke:none"
         transform="matrix(0.13333333,0,0,-0.13333333,0,547.02667)" />
      <path
         id="path125"
         d="m 3322.93,2256.17 c 0,0 12.24,-7.29 37.88,0.82 16.29,5.16 40.56,22.29 45.77,11.45 23.66,-49.25 22.74,-109.22 -19.63,-116.54 -42.38,-7.32 -69.95,86.42 -64.02,104.27"
         style="fill:#203763;fill-opacity:1;fill-rule:nonzero;stroke:none"
         transform="matrix(0.13333333,0,0,-0.13333333,0,547.02667)" />
      <path
         id="path126"
         d="m 3500.66,2284.74 c -1.37,10.16 -7.08,67.29 -3.59,78.9 -1.8,1.21 -5.12,1.84 -9.17,2.1 -19.97,1.26 -35.65,17.73 -36.43,37.73 0,0 -38.62,-0.87 -77.74,6.83 -50.51,9.93 -37.27,67.33 -36.26,67.58 13.39,3.4 121.58,20.43 183.23,-19.76 60.52,-39.45 31.33,-135.99 25.92,-152.14 -0.48,-1.44 -1.78,-2.35 -3.29,-2.41 l -38.93,-21.97 c -1.87,-0.08 -3.48,1.29 -3.74,3.14"
         style="fill:#203763;fill-opacity:1;fill-rule:nonzero;stroke:none"
         transform="matrix(0.13333333,0,0,-0.13333333,0,547.02667)" />
      <path
         id="path127"
         d="m 3544.56,2433.34 c 0,0 47.88,-26.73 10.13,-119.35 0,0 -31.13,30.57 -10.13,119.35"
         style="fill:#203763;fill-opacity:1;fill-rule:nonzero;stroke:none"
         transform="matrix(0.13333333,0,0,-0.13333333,0,547.02667)" />
      <path
         id="path128"
         d="m 3346.11,2353.52 c 0,0 -19,-38.26 -46.21,-63.2 -9.14,-8.37 18.44,-35.76 30.5,-36.98 26.77,-2.68 15.71,100.18 15.71,100.18"
         style="fill:#f9aa91;fill-opacity:1;fill-rule:nonzero;stroke:none"
         transform="matrix(0.13333333,0,0,-0.13333333,0,547.02667)" />
      <path
         id="path129"
         d="m 3550.21,2271.11 c -12.39,-21.67 -34.86,-31.12 -50.19,-21.11 -15.33,10 -17.72,35.69 -5.33,57.35 12.39,21.67 34.87,31.13 50.2,21.11 15.33,-10 17.72,-35.68 5.32,-57.35"
         style="fill:#f9aa91;fill-opacity:1;fill-rule:nonzero;stroke:none"
         transform="matrix(0.13333333,0,0,-0.13333333,0,547.02667)" />
      <path
         id="path130"
         d="m 3489.79,2218.12 c -2.33,-9.79 -7.15,-18.93 -13.21,-27.06 -6.07,-8.14 -13.58,-15.35 -22.23,-20.83 -8.71,-5.28 -18.01,-9.88 -27.99,-11.92 -4.87,-1.5 -9.98,-1.73 -14.94,-2.59 -5.03,-0.31 -10.06,-0.3 -15.04,-0.23 9.88,1.71 19.63,3.28 28.91,6.51 9.4,2.82 18.12,7.33 26.34,12.42 8.28,5.1 15.44,11.8 21.96,19.04 6.45,7.35 11.95,15.61 16.2,24.66"
         style="fill:#e07766;fill-opacity:1;fill-rule:nonzero;stroke:none"
         transform="matrix(0.13333333,0,0,-0.13333333,0,547.02667)" />
      <path
         id="path131"
         d="m 3386.95,2248.88 c -2.95,-7.54 -9.11,-13.67 -16.5,-17.37 -7.4,-3.71 -16.57,-4.22 -23.91,-0.94 4.02,0.51 7.79,0.65 11.4,1.68 3.58,0.94 7.07,2.05 10.33,3.76 6.65,3.16 12.59,7.68 18.68,12.87"
         style="fill:#f9aa91;fill-opacity:1;fill-rule:nonzero;stroke:none"
         transform="matrix(0.13333333,0,0,-0.13333333,0,547.02667)" />
      <path
         id="path132"
         d="m 3361.93,2321.39 c -0.24,-4.28 1.86,-7.87 4.71,-8.04 2.84,-0.17 5.36,3.16 5.61,7.43 0.25,4.27 -1.85,7.87 -4.7,8.04 -2.84,0.17 -5.36,-3.16 -5.62,-7.43"
         style="fill:#203763;fill-opacity:1;fill-rule:nonzero;stroke:none"
         transform="matrix(0.13333333,0,0,-0.13333333,0,547.02667)" />
      <path
         id="path133"
         d="m 3536.89,2315.93 c -5.73,0.31 -11.47,-0.8 -15.77,-3.77 -2.14,-1.49 -3.84,-3.45 -5.09,-5.69 -1.37,-2.17 -2.06,-4.75 -2.78,-7.28 l -1.47,2.83 c 2.67,-1.1 5.06,-2.33 7.41,-4.15 2.06,-1.74 5.09,-4.55 4.31,-8.91 -0.36,-2.01 -1.62,-3.38 -2.68,-4.47 l -2.95,-2.66 c -1,-0.89 -2.06,-1.7 -3.17,-2.5 -1.36,-0.81 -1.69,-1.51 -4.33,-2.29 l 1.53,1.53 c -0.5,-5.11 0.07,-11.06 4.05,-15.3 -2.55,1.41 -4.45,3.94 -5.66,6.69 -1.25,2.79 -1.69,5.74 -1.75,8.91 l 1.55,1.53 2.15,1.95 2.69,2.65 c 1.76,1.83 3.95,3.77 3.85,4.87 0.35,1.03 -0.89,2.74 -2.68,4.1 -1.76,1.37 -3.97,2.64 -6.09,3.54 l -0.15,0.06 c -1.08,0.47 -1.63,1.66 -1.32,2.76 0.84,2.97 1.98,5.91 3.82,8.5 1.66,2.7 4.3,4.77 7.04,6.22 5.6,2.96 12.08,2.8 17.49,0.88"
         style="fill:#e07766;fill-opacity:1;fill-rule:nonzero;stroke:none"
         transform="matrix(0.13333333,0,0,-0.13333333,0,547.02667)" />
      <path
         id="path134"
         d="m 3390.66,2340.63 c 2.34,2.97 1.11,12.45 -11.41,18.25 -7,3.24 -13.33,1.34 -14.23,0.79 -1.89,-1.16 -2.84,-3.92 -1.99,-6.12 1.49,-3.89 7.33,-2.48 14.74,-7.55 5.32,-3.64 3.21,-4.53 8.5,-6.2 0.51,-0.16 3.01,-0.92 4.39,0.83"
         style="fill:#203763;fill-opacity:1;fill-rule:nonzero;stroke:none"
         transform="matrix(0.13333333,0,0,-0.13333333,0,547.02667)" />
      <path
         id="path135"
         d="m 3513.56,2153.23 c 0,0 -42.09,-71.63 -95.32,-91.5 0,0 34.16,-17.24 58.92,-34.01 0,0 72.84,69.17 77.53,82.32 0,0 -5.26,32.67 -41.13,43.19"
         style="fill:#ffffff;fill-opacity:1;fill-rule:nonzero;stroke:none"
         transform="matrix(0.13333333,0,0,-0.13333333,0,547.02667)" />
      <path
         id="path136"
         d="m 3386.12,2118.07 -7.46,-26.14 39.58,-30.2 c 0,0 -31.85,-14.1 -46.43,-23 0,0 -16.98,18.91 -17.26,50.59 0,0 6.57,21.9 31.57,28.75"
         style="fill:#ffffff;fill-opacity:1;fill-rule:nonzero;stroke:none"
         transform="matrix(0.13333333,0,0,-0.13333333,0,547.02667)" />
      <path
         id="path137"
         d="m 3519.19,2441.72 c 0,0 -25.21,39.83 -151.42,62.36 0,0 -20.95,-59.74 151.42,-62.36"
         style="fill:#203763;fill-opacity:1;fill-rule:nonzero;stroke:none"
         transform="matrix(0.13333333,0,0,-0.13333333,0,547.02667)" />
      <path
         id="path138"
         d="m 3536.01,2444.99 c 0,0 -23.78,32.48 -99.49,54.08 0,0 -5.64,-41.79 99.49,-54.08"
         style="fill:#203763;fill-opacity:1;fill-rule:nonzero;stroke:none"
         transform="matrix(0.13333333,0,0,-0.13333333,0,547.02667)" />
      <path
         id="path139"
         d="m 3525.16,2436.5 c 0,0 -0.11,17.49 24.45,36.4 0,0 13.09,-21.52 -24.45,-36.4"
         style="fill:#203763;fill-opacity:1;fill-rule:nonzero;stroke:none"
         transform="matrix(0.13333333,0,0,-0.13333333,0,547.02667)" />
      <path
         id="path140"
         d="m 3524.72,2439.02 c 0,0 12.5,12.25 43.17,7.74 0,0 -6.37,-24.37 -43.17,-7.74"
         style="fill:#203763;fill-opacity:1;fill-rule:nonzero;stroke:none"
         transform="matrix(0.13333333,0,0,-0.13333333,0,547.02667)" />
      <path
         id="path141"
         d="m 3347.6,2321.35 h -1.83 c 0,-8.36 2.54,-15.96 6.75,-21.55 4.2,-5.58 10.18,-9.2 16.88,-9.2 6.71,0 12.68,3.62 16.88,9.2 4.21,5.59 6.76,13.19 6.76,21.55 0,8.36 -2.55,15.96 -6.76,21.55 -4.2,5.59 -10.17,9.2 -16.88,9.2 -6.7,0 -12.68,-3.61 -16.88,-9.2 -4.21,-5.59 -6.75,-13.19 -6.75,-21.55 h 1.83 1.83 c -0.01,7.62 2.33,14.48 6.01,19.35 3.7,4.89 8.62,7.74 13.96,7.74 5.34,0 10.26,-2.85 13.96,-7.74 3.68,-4.87 6.02,-11.73 6.02,-19.35 0,-7.61 -2.34,-14.47 -6.02,-19.35 -3.7,-4.88 -8.62,-7.74 -13.96,-7.74 -5.34,0 -10.26,2.86 -13.96,7.74 -3.68,4.88 -6.02,11.74 -6.01,19.35 h -1.83"
         style="fill:#efefed;fill-opacity:1;fill-rule:nonzero;stroke:none"
         transform="matrix(0.13333333,0,0,-0.13333333,0,547.02667)" />
      <path
         id="path142"
         d="m 3349.97,2329.45 c -0.06,0.15 -0.81,2.18 -2.81,4.28 -1.98,2.09 -5.35,4.21 -10.19,4.2 -0.96,0 -1.98,-0.09 -3.05,-0.26 l 0.59,-3.61 2.46,0.21 c 3.78,-0.02 6.05,-1.53 7.55,-3.08 l 1.58,-2.13 0.35,-0.68 0.08,-0.19 3.44,1.26"
         style="fill:#efefed;fill-opacity:1;fill-rule:nonzero;stroke:none"
         transform="matrix(0.13333333,0,0,-0.13333333,0,547.02667)" />
      <path
         id="path143"
         d="m 3408.44,2262.97 c 0,0 21.21,-24.61 19.78,-46.78 0,0 -22.65,23.6 -19.78,46.78"
         style="fill:#203763;fill-opacity:1;fill-rule:nonzero;stroke:none"
         transform="matrix(0.13333333,0,0,-0.13333333,0,547.02667)" />
      <path
         id="path144"
         d="m 3334.22,2251.66 c 0,0 28.37,31.07 49.8,18.59 0,0 -27.67,-34.34 -49.8,-18.59"
         style="fill:#203763;fill-opacity:1;fill-rule:nonzero;stroke:none"
         transform="matrix(0.13333333,0,0,-0.13333333,0,547.02667)" />
      <path
         id="path145"
         d="m 3413.74,2247.53 c 0,0 19.48,-29.79 9.65,-50.6 0,0 -21.77,29.25 -9.65,50.6"
         style="fill:#203763;fill-opacity:1;fill-rule:nonzero;stroke:none"
         transform="matrix(0.13333333,0,0,-0.13333333,0,547.02667)" />
      <path
         id="path146"
         d="m 3415.26,2038.73 30.16,-25.42 -33.77,-36.95 -25.26,43.43 28.87,18.94"
         style="fill:#203763;fill-opacity:1;fill-rule:nonzero;stroke:none"
         transform="matrix(0.13333333,0,0,-0.13333333,0,547.02667)" />
      <path
         id="path147"
         d="m 3086.41,117.469 0.07,0.051 c 19.5,9.07 12.3,38.8 36.08,22.039 15.26,-10.77 23.31,-30.118 39.18,-32.25 35.12,0.851 58.81,19.351 58.81,19.351 v 0.012 l 3.88,0.238 c 0,0 17.05,-30.0311 12.16,-88.9217 -0.27,-3.2891 -3,-5.9297 -6.29,-6.1289 l -61.59,-3.5196 c -58.39,19.8399 -44.86,-17.0078 -209.82,3.1993 -2.93,0.3515 -5.4,2.5625 -5.84,5.4726 -2.59,16.8203 -0.57,71.8083 133.36,80.4573"
         style="fill:#203763;fill-opacity:1;fill-rule:nonzero;stroke:none"
         transform="matrix(0.13333333,0,0,-0.13333333,0,547.02667)" />
      <path
         id="path148"
         d="m 3864.74,233.969 0.03,0.101 c 9.89,19.09 -14,38.211 15.07,39.481 18.66,0.82 36.87,-9.571 50.72,-1.551 27.28,22.16 34.7,51.281 34.7,51.281 v 0.008 l 2.92,2.563 c 0,0 31.86,-13.34 64,-62.93 1.79,-2.762 1.27,-6.524 -1.22,-8.684 l -46.6,-40.457 C 3926.04,193.77 3959.28,172.891 3816.41,88 c -2.53,-1.5078 -5.84,-1.2812 -7.97,0.75 -12.34,11.73 -44.36,56.48 56.3,145.219"
         style="fill:#203763;fill-opacity:1;fill-rule:nonzero;stroke:none"
         transform="matrix(0.13333333,0,0,-0.13333333,0,547.02667)" />
      <path
         id="path149"
         d="m 3390.05,2319.26 108.92,-7.1 0.24,3.66 -108.93,7.09"
         style="fill:#efefed;fill-opacity:1;fill-rule:nonzero;stroke:none"
         transform="matrix(0.13333333,0,0,-0.13333333,0,547.02667)" />
      <path
         id="path150"
         d="m 3645.36,1748.9 c -8.74,17.85 -15.32,36.39 -21.38,55.1 -5.83,18.77 -11.11,37.72 -14.22,57.35 8.76,-17.84 15.34,-36.37 21.37,-55.09 5.82,-18.77 11.1,-37.73 14.23,-57.36"
         style="fill:#ba8231;fill-opacity:1;fill-rule:nonzero;stroke:none"
         transform="matrix(0.13333333,0,0,-0.13333333,0,547.02667)" />
      <path
         id="path151"
         d="m 3243.95,1991.08 c -2.83,-11.11 -5.83,-21.5 -8.9,-32.07 -3.19,-10.52 -6.17,-21.05 -10.77,-31.64 -1.26,11.49 0.49,22.84 3.58,33.77 3.37,10.78 8.01,21.55 16.09,29.94"
         style="fill:#ba8231;fill-opacity:1;fill-rule:nonzero;stroke:none"
         transform="matrix(0.13333333,0,0,-0.13333333,0,547.02667)" />
      <path
         id="path152"
         d="m 3510.18,1907.86 c -7.61,-27.09 -16.81,-53.69 -26.64,-80.05 -9.86,-26.35 -20.97,-52.24 -32.71,-77.85 -12.36,-25.33 -25.29,-50.48 -41.1,-73.99 -7.94,-11.7 -16.58,-23.03 -26.56,-33.17 -9.95,-9.72 -22.17,-19.48 -36.63,-19.88 14.13,2.14 24.99,12.05 33.96,22.41 9.19,10.38 17.14,21.87 24.39,33.78 14.56,23.78 27.42,48.64 39.16,74.05 12.23,25.18 23.18,50.98 34.15,76.78 10.92,25.84 21.45,51.84 31.98,77.92"
         style="fill:#ba8231;fill-opacity:1;fill-rule:nonzero;stroke:none"
         transform="matrix(0.13333333,0,0,-0.13333333,0,547.02667)" />
      <path
         id="path153"
         d="m 3272.46,1778.23 c 4.43,-30.01 8.93,-59.96 13.95,-89.81 5.05,-29.83 10.15,-59.65 16.73,-89.14 6.02,-29.6 13.33,-58.93 22.58,-87.6 4.64,-14.31 9.89,-28.46 16.54,-41.93 6.52,-13.46 14.52,-26.54 26.41,-36.08 -12.96,8.18 -21.98,21.3 -29.66,34.36 -7.44,13.38 -13.38,27.49 -18.74,41.77 -10.52,28.65 -17.83,58.27 -24.45,87.92 -6.01,29.8 -11.24,59.75 -15.09,89.86 -3.85,30.11 -6.91,60.33 -8.27,90.65"
         style="fill:#ba8231;fill-opacity:1;fill-rule:nonzero;stroke:none"
         transform="matrix(0.13333333,0,0,-0.13333333,0,547.02667)" />
      <path
         id="path154"
         d="m 3587.02,1591.71 c -6.55,-1.69 -12.92,-3.61 -19.4,-4.99 -6.45,-1.52 -12.93,-2.76 -19.37,-4.07 l -19.25,-3.68 c -3.06,-0.7 -6.45,-1.43 -8.65,-2.6 l -0.64,-0.14 1.16,-1.29 c 1.27,-0.86 2.78,-1.62 4.29,-2.43 -1.7,0.02 -3.41,0.11 -5.16,0.64 -0.86,0.27 -1.84,0.58 -2.75,1.68 -1.16,1.53 -0.09,3.46 0.6,4.24 3.07,2.94 6.23,4.14 9.43,5.49 6.4,2.54 12.97,4.11 19.55,5.45 13.2,2.29 26.63,3.87 40.19,1.7"
         style="fill:#ba8231;fill-opacity:1;fill-rule:nonzero;stroke:none"
         transform="matrix(0.13333333,0,0,-0.13333333,0,547.02667)" />
      <path
         id="path155"
         d="m 3579.01,1582.11 c -5.53,-7.21 -11.92,-12.78 -18,-18.46 -3.04,-2.76 -6.09,-5.59 -8.42,-8.42 -1.11,-1.45 -2.04,-2.83 -1.98,-3.99 -0.23,-1.45 1.62,-2.91 3.44,-4.23 -2.19,-0.17 -4.95,0.09 -6.84,2.83 -1.65,2.98 -0.65,6.07 0.28,8.27 2.04,4.63 5.23,7.94 8.45,11.06 6.7,5.92 14.24,10.61 23.07,12.94"
         style="fill:#ba8231;fill-opacity:1;fill-rule:nonzero;stroke:none"
         transform="matrix(0.13333333,0,0,-0.13333333,0,547.02667)" />
      <path
         id="path156"
         d="m 1260.36,2294.66 c -4.63,0 -9.43,0.07 -14.35,0.21 -27.49,0.76 -56.71,5.26 -84.35,5.26 -3.99,0 -7.96,-0.1 -11.88,-0.31 27.5,63.18 59.91,123.65 96.79,181.05 10.49,-3.68 21.53,-9.5 33.63,-18.14 -1.64,0.1 -3.3,0.15 -4.99,0.15 -0.62,0 -1.25,0 -1.88,-0.02 5.74,-10.48 12.97,-18.38 20.66,-25.5 7.74,-7.01 16.07,-13 24.91,-18.13 5.53,-3.21 11.27,-6.06 17.23,-8.53 66.3,-75.95 36.76,-116.04 -75.77,-116.04"
         style="fill:#bed1e1;fill-opacity:1;fill-rule:nonzero;stroke:none"
         transform="matrix(0.13333333,0,0,-0.13333333,0,547.02667)" />
      <path
         id="path157"
         d="m 906.359,1887.5 c 0,0 -6.144,7.09 -15.613,18.89 6.863,195.63 52.828,381.28 130.354,549.42 12.73,0.41 26.79,0.97 42.49,1.94 69.02,4.29 108.09,25.86 145.83,28.16 -34.26,-60.53 -63.76,-124.13 -87.96,-190.26 -36.66,-9.62 -66.54,-37.49 -79.52,-108.82 C 1009.57,2009.04 906.359,1887.5 906.359,1887.5"
         style="fill:#36589e;fill-opacity:1;fill-rule:nonzero;stroke:none"
         transform="matrix(0.13333333,0,0,-0.13333333,0,547.02667)" />
      <path
         id="path158"
         d="m 1336.13,2410.7 c -5.96,2.47 -11.7,5.32 -17.23,8.53 -8.84,5.13 -17.17,11.12 -24.91,18.13 -7.69,7.12 -14.92,15.02 -20.66,25.5 0.63,0.02 1.26,0.02 1.88,0.02 1.69,0 3.35,-0.05 4.99,-0.15 10.4,-7.42 21.59,-16.91 33.9,-28.91 8.25,-8.04 15.6,-15.75 22.03,-23.12"
         style="fill:#64afd1;fill-opacity:1;fill-rule:nonzero;stroke:none"
         transform="matrix(0.13333333,0,0,-0.13333333,0,547.02667)" />
      <path
         id="path159"
         d="m 1121.46,2295.65 c 24.2,66.13 53.7,129.73 87.96,190.26 2.14,0.13 4.27,0.2 6.41,0.2 10.05,0 20.11,-1.52 30.74,-5.24 -36.88,-57.4 -69.29,-117.87 -96.79,-181.05 -9.76,-0.53 -19.24,-1.79 -28.32,-4.17"
         style="fill:#a5c9db;fill-opacity:1;fill-rule:nonzero;stroke:none"
         transform="matrix(0.13333333,0,0,-0.13333333,0,547.02667)" />
      <path
         id="path160"
         d="m 906.359,1944.28 c 0,0 -149.941,172.64 -118.386,246.3 31.55,73.66 2.832,162.72 65.746,248.65 62.91,85.93 84.785,67.54 209.871,75.31 125.08,7.77 151.79,72.28 250.51,-23.93 96.78,-94.32 67.76,-142.73 -68.09,-138.95 -81.32,2.26 -177.64,37.12 -204.07,-108.04 -32.37,-177.79 -135.581,-299.34 -135.581,-299.34"
         style="fill:#5ac587;fill-opacity:1;fill-rule:nonzero;stroke:none"
         transform="matrix(0.13333333,0,0,-0.13333333,0,547.02667)" />
      <path
         id="path161"
         d="m 712.5,2047.24 c 44.133,25.03 6.68,147.61 -64.992,212.67 -49.5,44.95 -100.195,7.01 -172.164,65.43 -50.824,41.26 -48.051,78.45 -88.301,87.23 -47.555,10.37 -65.941,-38.39 -141.629,-53.63 -72.855,-14.69 -90.84,23.43 -135.91,4.91 -82.6602,-33.95 -141.2696,-211.09 -90.7071,-265.25 30.9375,-33.14 106.8481,66.83 189.1411,32.66 41.011,-17.04 39.945,-47.88 80.914,-58.26 57.382,-14.54 86.57,39.09 146.863,49.27 116.527,19.66 227.441,-103.02 276.785,-75.03"
         style="fill:#5ac587;fill-opacity:1;fill-rule:nonzero;stroke:none"
         transform="matrix(0.13333333,0,0,-0.13333333,0,547.02667)" />
      <path
         id="path162"
         d="m 1008.91,1222.31 c -11.387,55.61 -23.515,111.06 -36.875,166.21 -12.969,55.23 -27.133,110.18 -42.347,164.81 -30.547,109.14 -63.809,217.86 -108.075,322.05 -22.05,52.01 -46.297,103.39 -78.754,149.46 l -24.847,34.28 c -8.578,11.19 -18.067,21.66 -27.059,32.54 -4.644,5.29 -8.887,10.97 -13.875,15.96 l -14.805,15.11 c -9.812,10.13 -19.46,20.46 -30.3,29.51 -41.575,38.13 -88.317,70.79 -138.965,95.89 -50.461,25.17 -104.778,44.25 -161.317,50.18 56.832,-3.68 111.903,-21.9 163.457,-45.78 51.524,-24.41 99.274,-56.69 141.95,-94.56 11.125,-9 21.047,-19.26 31.14,-29.36 l 15.102,-15.19 c 5.07,-5.03 9.394,-10.73 14.125,-16.07 9.152,-10.95 18.808,-21.51 27.547,-32.77 l 25.312,-34.53 c 33.239,-46.69 58.055,-98.53 80.485,-150.78 21.964,-52.55 41.332,-106.09 58.586,-160.27 17.3,-54.15 33.632,-108.62 47.683,-163.68 28.86,-109.91 53.043,-221.03 71.832,-333.01"
         style="fill:#2a5f57;fill-opacity:1;fill-rule:nonzero;stroke:none"
         transform="matrix(0.13333333,0,0,-0.13333333,0,547.02667)" />
      <path
         id="path163"
         d="m 1032.95,1225.53 c -18.81,95.63 -36.727,191.4 -54.571,287.19 l -52.262,287.61 c -16.351,96.06 -33.324,192.06 -46.34,288.75 -6.207,48.36 -12.031,96.9 -13.148,145.82 -0.27,24.42 0.621,49.09 6.019,73.09 2.977,11.91 7.219,23.59 13.633,34.08 6.418,10.48 15.071,19.43 24.805,26.73 -9.434,-7.7 -17.625,-16.93 -23.504,-27.5 -5.969,-10.52 -9.785,-22.09 -12.344,-33.88 -4.586,-23.77 -4.722,-48.18 -3.707,-72.38 2.094,-48.5 8.75,-96.78 15.864,-144.89 14.554,-96.24 31.441,-192.2 48.558,-288.09 l 49.965,-288 c 16.272,-96.08 32.282,-192.2 47.032,-288.53"
         style="fill:#2a5f57;fill-opacity:1;fill-rule:nonzero;stroke:none"
         transform="matrix(0.13333333,0,0,-0.13333333,0,547.02667)" />
      <path
         id="path164"
         d="m 902.289,1577.23 c 0,0 14.699,190.41 -44.156,222.19 -58.852,31.78 -86.297,104.91 -172.028,128.44 -85.73,23.52 -90.488,0.15 -176.296,-59.68 -85.813,-59.84 -136.75,-31.53 -151.364,-145.67 -14.32,-111.89 29.778,-128.48 116.629,-55.5 51.992,43.68 96.875,116.47 189.5,35.27 C 778,1602.85 902.289,1577.23 902.289,1577.23"
         style="fill:#5ac587;fill-opacity:1;fill-rule:nonzero;stroke:none"
         transform="matrix(0.13333333,0,0,-0.13333333,0,547.02667)" />
      <path
         id="path165"
         d="m 983.91,1219.26 -7.324,40.7 -7.848,40.55 -8.218,40.45 -9.063,40.26 c -12.609,53.51 -26.723,106.7 -44.855,158.5 -17.422,52.01 -38.711,102.77 -65.266,150.68 -6.184,12.25 -13.805,23.63 -21.09,35.23 -6.914,11.88 -15.726,22.38 -23.754,33.51 l -6.113,8.27 -6.781,7.71 -13.59,15.48 c -4.293,5.41 -9.84,9.54 -14.723,14.39 l -15.039,14.18 c 10.524,-8.83 21.774,-17.03 31.641,-26.7 l 14.523,-14.83 7.281,-7.43 6.614,-7.99 c 8.531,-10.9 17.789,-21.32 25.175,-33.05 7.758,-11.48 15.868,-22.78 22.528,-34.94 28.285,-47.73 49.746,-99.11 68.047,-151.29 17.484,-52.5 31.824,-105.97 42.883,-160.08 11.066,-54.11 19.425,-108.72 24.972,-163.6"
         style="fill:#2a5f57;fill-opacity:1;fill-rule:nonzero;stroke:none"
         transform="matrix(0.13333333,0,0,-0.13333333,0,547.02667)" />
      <path
         id="path166"
         d="M 1039.79,0 C 561.348,0 173.484,59.1406 173.484,132.07 c 0,72.942 387.864,132.078 866.306,132.078 478.45,0 866.32,-59.136 866.32,-132.078 C 1906.11,59.1406 1518.24,0 1039.79,0"
         style="fill:#e3e8ee;fill-opacity:1;fill-rule:nonzero;stroke:none"
         transform="matrix(0.13333333,0,0,-0.13333333,0,547.02667)" />
      <path
         id="path167"
         d="M 291.043,1495.27 173.484,161 h 284.832 z"
         style="fill:#99b6bb;fill-opacity:1;fill-rule:nonzero;stroke:none"
         transform="matrix(0.13333333,0,0,-0.13333333,0,547.02667)" />
      <path
         id="path168"
         d="m 308.809,1241.91 c 0,0 42.113,-1132.078 112.152,-1172.5584 C 491,28.8789 1717.94,-17.0586 1993.44,227.801 c 0,0 -104.51,158.937 -129.78,297.289 -25.27,138.351 -83.74,819.18 -83.74,819.18 L 308.809,1241.91"
         style="fill:#ffffff;fill-opacity:1;fill-rule:nonzero;stroke:none"
         transform="matrix(0.13333333,0,0,-0.13333333,0,547.02667)" />
      <path
         id="path169"
         d="m 806.609,902.27 -0.336,2.48 -222.765,-30.211 -16.379,233.571 229.379,16.08 7.601,-221.999 2.5,0.079 -0.336,2.48 0.336,-2.48 2.5,0.089 -7.781,227.181 -239.535,-16.8 17.098,-243.869 230.293,31.231 -0.075,2.257 -2.5,-0.089"
         style="fill:#c3c5c2;fill-opacity:1;fill-rule:nonzero;stroke:none"
         transform="matrix(0.13333333,0,0,-0.13333333,0,547.02667)" />
      <path
         id="path170"
         d="m 1108.11,908.648 -0.18,2.493 -231.961,-16.262 -17.52,249.861 230.591,0.13 16.57,-236.401 2.5,0.179 -0.18,2.493 0.18,-2.493 2.49,0.172 -16.9,241.05 -240.61,-0.13 18.242,-260.201 239.448,16.793 -0.18,2.488 -2.49,-0.172"
         style="fill:#c3c5c2;fill-opacity:1;fill-rule:nonzero;stroke:none"
         transform="matrix(0.13333333,0,0,-0.13333333,0,547.02667)" />
      <path
         id="path171"
         d="m 1391.39,945.012 -0.36,2.48 -222.62,-31.922 -16.38,233.54 229.38,16.09 7.48,-220.27 2.5,0.082 -0.36,2.48 0.36,-2.48 2.5,0.09 -7.66,225.448 -239.54,-16.8 17.11,-243.898 230.16,33.007 -0.07,2.243 -2.5,-0.09"
         style="fill:#c3c5c2;fill-opacity:1;fill-rule:nonzero;stroke:none"
         transform="matrix(0.13333333,0,0,-0.13333333,0,547.02667)" />
      <path
         id="path172"
         d="m 838.809,557.98 -0.047,2.5 -232.934,-4.289 -16.398,233.86 229.468,16.097 17.415,-248.339 2.496,0.171 -0.047,2.5 0.047,-2.5 2.492,0.18 -17.766,253.32 -239.441,-16.789 17.078,-243.589 240.312,4.429 -0.183,2.629 -2.492,-0.18"
         style="fill:#c3c5c2;fill-opacity:1;fill-rule:nonzero;stroke:none"
         transform="matrix(0.13333333,0,0,-0.13333333,0,547.02667)" />
      <path
         id="path173"
         d="m 1130.41,590.59 -0.36,2.48 -230.581,-33.39 -17.598,251 228.639,28 17.4,-248.258 2.5,0.168 -0.36,2.48 0.36,-2.48 2.49,0.18 -17.78,253.511 -238.569,-29.211 18.304,-261.109 238.205,34.488 -0.16,2.321 -2.49,-0.18"
         style="fill:#c3c5c2;fill-opacity:1;fill-rule:nonzero;stroke:none"
         transform="matrix(0.13333333,0,0,-0.13333333,0,547.02667)" />
      <path
         id="path174"
         d="m 1424.07,593.762 0.01,2.5 -233.35,0.886 -16.4,233.922 229.47,16.078 17.78,-253.558 2.49,0.172 0.01,2.5 -0.01,-2.5 2.49,0.179 -18.12,258.551 -239.45,-16.793 17.07,-243.527 240.69,-0.922 -0.19,2.691 -2.49,-0.179"
         style="fill:#c3c5c2;fill-opacity:1;fill-rule:nonzero;stroke:none"
         transform="matrix(0.13333333,0,0,-0.13333333,0,547.02667)" />
      <path
         id="path175"
         d="m 860.258,252.039 -0.176,2.492 -231.965,-16.269 -16.941,241.66 230.019,8.25 16.567,-236.313 2.496,0.18 -0.176,2.492 0.176,-2.492 2.492,0.172 -16.906,241.129 -240.02,-8.598 17.656,-251.82 239.446,16.797 -0.176,2.492 -2.492,-0.172"
         style="fill:#c3c5c2;fill-opacity:1;fill-rule:nonzero;stroke:none"
         transform="matrix(0.13333333,0,0,-0.13333333,0,547.02667)" />
      <path
         id="path176"
         d="m 1686.25,949.18 -0.18,2.5 -231.96,-16.27 -16.39,233.73 229.47,16.1 16.56,-236.228 2.5,0.168 -0.18,2.5 0.18,-2.5 2.49,0.179 -16.91,241.211 -239.45,-16.79 17.09,-243.71 239.45,16.801 -0.18,2.488 -2.49,-0.179"
         style="fill:#c3c5c2;fill-opacity:1;fill-rule:nonzero;stroke:none"
         transform="matrix(0.13333333,0,0,-0.13333333,0,547.02667)" />
      <path
         id="path177"
         d="m 1708.55,631.129 -0.18,2.492 -231.97,-16.262 -16.38,233.731 229.47,16.09 16.56,-236.231 2.5,0.18 -0.18,2.492 0.18,-2.492 2.49,0.172 -16.91,241.219 -239.45,-16.79 17.09,-243.71 239.45,16.789 -0.18,2.492 -2.49,-0.172"
         style="fill:#c3c5c2;fill-opacity:1;fill-rule:nonzero;stroke:none"
         transform="matrix(0.13333333,0,0,-0.13333333,0,547.02667)" />
      <path
         id="path178"
         d="m 1730.85,313.07 -0.18,2.5 -231.86,-16.261 -8.01,249.203 220.98,0.769 16.57,-236.383 2.5,0.172 -0.18,2.5 0.18,-2.5 2.49,0.18 -16.9,241.051 -230.81,-0.809 8.34,-259.531 239.55,16.789 -0.18,2.5 -2.49,-0.18"
         style="fill:#c3c5c2;fill-opacity:1;fill-rule:nonzero;stroke:none"
         transform="matrix(0.13333333,0,0,-0.13333333,0,547.02667)" />
      <path
         id="path179"
         d="m 1152.71,272.531 0.06,2.5 -245.11,6.5 -3.609,210.961 229.599,16.098 16.56,-236.231 2.5,0.172 0.06,2.5 -0.06,-2.5 2.49,0.18 -16.91,241.211 -239.317,-16.774 3.769,-220.488 252.648,-6.699 -0.19,2.75 -2.49,-0.18"
         style="fill:#c3c5c2;fill-opacity:1;fill-rule:nonzero;stroke:none"
         transform="matrix(0.13333333,0,0,-0.13333333,0,547.02667)" />
      <path
         id="path180"
         d="m 1445.15,293.039 -0.17,2.5 -231.96,-16.258 -16.4,233.809 228.93,23.93 17.11,-244.149 2.49,0.168 -0.17,2.5 0.17,-2.5 2.5,0.18 -17.48,249.312 -238.87,-24.972 17.08,-243.618 239.44,16.778 -0.17,2.5 -2.5,-0.18"
         style="fill:#c3c5c2;fill-opacity:1;fill-rule:nonzero;stroke:none"
         transform="matrix(0.13333333,0,0,-0.13333333,0,547.02667)" />
      <path
         id="path181"
         d="m 1567.99,1415.34 c -23.17,-1.62 -43.27,15.84 -44.89,39.01 -1.63,23.16 15.84,43.27 39.01,44.89 23.16,1.62 43.26,-15.84 44.89,-39.01 1.62,-23.16 -15.84,-43.26 -39.01,-44.89 z m -250.5,-17.56 c -23.17,-1.62 -43.27,15.84 -44.89,39.01 -1.63,23.17 15.84,43.26 39,44.88 23.17,1.64 43.27,-15.83 44.9,-39 1.62,-23.17 -15.84,-43.27 -39.01,-44.89 z m -250.5,-17.56 c -23.17,-1.63 -43.27,15.84 -44.89,39 -1.63,23.17 15.84,43.28 39.01,44.9 23.17,1.62 43.26,-15.84 44.89,-39.02 1.62,-23.16 -15.84,-43.26 -39.01,-44.88 z m -250.502,-17.57 c -23.172,-1.62 -43.265,15.84 -44.886,39.02 -1.629,23.16 15.839,43.26 39.007,44.89 23.164,1.62 43.266,-15.85 44.887,-39.02 1.625,-23.16 -15.84,-43.26 -39.008,-44.89 z m -250.5,-17.56 c -23.168,-1.63 -43.265,15.84 -44.89,39.01 -1.625,23.17 15.84,43.27 39.007,44.89 23.168,1.62 43.266,-15.84 44.895,-39.01 1.625,-23.17 -15.844,-43.27 -39.012,-44.89 z m 1196.172,252.54 -1471.117,-102.36 17.766,-253.36 1471.121,102.36 -17.77,253.36"
         style="fill:#fabb43;fill-opacity:1;fill-rule:nonzero;stroke:none"
         transform="matrix(0.13333333,0,0,-0.13333333,0,547.02667)" />
      <path
         id="path182"
         d="m 1029.44,1073.79 c -4.68,-11.73 -10.94,-22.1 -17.55,-32.14 -6.72,-9.97 -14.023,-19.41 -21.831,-28.42 -7.817,-9.01 -16.149,-17.558 -25.075,-25.601 -9.019,-7.957 -18.418,-15.59 -29.398,-21.84 4.656,11.742 10.902,22.121 17.527,32.152 6.715,9.969 14.02,19.419 21.852,28.399 7.828,9 16.16,17.55 25.095,25.59 9.02,7.95 18.41,15.59 29.38,21.86"
         style="fill:#3e3f42;fill-opacity:1;fill-rule:nonzero;stroke:none"
         transform="matrix(0.13333333,0,0,-0.13333333,0,547.02667)" />
      <path
         id="path183"
         d="m 1036.51,972.871 c -11.73,4.668 -22.09,10.918 -32.14,17.551 -9.964,6.699 -19.409,14.008 -28.421,21.818 -9.008,7.81 -17.558,16.14 -25.597,25.08 -7.961,9.01 -15.594,18.41 -21.844,29.39 11.75,-4.65 22.121,-10.89 32.16,-17.53 9.961,-6.7 19.406,-14.01 28.398,-21.84 8.993,-7.83 17.544,-16.17 25.584,-25.1 7.96,-9.021 15.59,-18.408 21.86,-29.369"
         style="fill:#3e3f42;fill-opacity:1;fill-rule:nonzero;stroke:none"
         transform="matrix(0.13333333,0,0,-0.13333333,0,547.02667)" />
      <path
         id="path184"
         d="m 1367.05,462.191 c -4.67,-11.742 -10.92,-22.101 -17.54,-32.152 -6.71,-9.957 -14.02,-19.398 -21.83,-28.41 -7.81,-9.008 -16.15,-17.559 -25.08,-25.598 -9.01,-7.961 -18.41,-15.601 -29.39,-21.851 4.65,11.75 10.9,22.121 17.52,32.16 6.72,9.961 14.02,19.422 21.86,28.402 7.82,9 16.16,17.547 25.09,25.59 9.02,7.957 18.41,15.59 29.37,21.859"
         style="fill:#3e3f42;fill-opacity:1;fill-rule:nonzero;stroke:none"
         transform="matrix(0.13333333,0,0,-0.13333333,0,547.02667)" />
      <path
         id="path185"
         d="m 1374.13,361.262 c -11.73,4.679 -22.09,10.929 -32.14,17.547 -9.96,6.711 -19.41,14.023 -28.42,21.832 -9.01,7.808 -17.56,16.148 -25.6,25.078 -7.96,9.011 -15.59,18.41 -21.84,29.39 11.75,-4.66 22.12,-10.898 32.16,-17.527 9.96,-6.711 19.41,-14.012 28.4,-21.84 8.99,-7.832 17.54,-16.172 25.58,-25.101 7.95,-9.02 15.59,-18.411 21.86,-29.379"
         style="fill:#3e3f42;fill-opacity:1;fill-rule:nonzero;stroke:none"
         transform="matrix(0.13333333,0,0,-0.13333333,0,547.02667)" />
      <path
         id="path186"
         d="m 759.285,735.23 c -4.676,-11.73 -10.933,-22.089 -17.551,-32.14 -6.711,-9.961 -14.015,-19.41 -21.828,-28.418 -7.808,-9.012 -16.148,-17.563 -25.074,-25.602 -9.019,-7.961 -18.418,-15.59 -29.398,-21.84 4.656,11.75 10.902,22.122 17.527,32.161 6.715,9.961 14.019,19.398 21.852,28.398 7.832,8.992 16.167,17.543 25.093,25.582 9.028,7.949 18.41,15.59 29.379,21.859"
         style="fill:#76d0e4;fill-opacity:1;fill-rule:nonzero;stroke:none"
         transform="matrix(0.13333333,0,0,-0.13333333,0,547.02667)" />
      <path
         id="path187"
         d="m 766.359,634.301 c -11.73,4.679 -22.093,10.941 -32.136,17.551 -9.965,6.718 -19.414,14.019 -28.418,21.839 -9.016,7.801 -17.567,16.141 -25.606,25.059 -7.961,9.02 -15.59,18.422 -21.84,29.41 11.746,-4.66 22.118,-10.91 32.157,-17.531 9.961,-6.719 19.41,-14.02 28.398,-21.859 8.992,-7.829 17.543,-16.161 25.586,-25.09 7.953,-9.032 15.59,-18.41 21.859,-29.379"
         style="fill:#76d0e4;fill-opacity:1;fill-rule:nonzero;stroke:none"
         transform="matrix(0.13333333,0,0,-0.13333333,0,547.02667)" />
      <path
         id="path188"
         d="m 1761.07,161 c 13.87,10.672 26.83,22.172 39.39,33.941 12.41,11.918 24.2,24.391 34.87,37.719 10.79,13.25 19.9,27.68 28,42.692 7.89,15.168 13.49,31.339 18.04,48.32 -0.66,-17.43 -3.93,-35.223 -10.96,-51.602 -6.96,-16.351 -16.2,-31.769 -27.28,-45.64 -22.45,-27.418 -50.31,-50.45 -82.06,-65.43"
         style="fill:#c3c5c2;fill-opacity:1;fill-rule:nonzero;stroke:none"
         transform="matrix(0.13333333,0,0,-0.13333333,0,547.02667)" />
      <path
         id="path189"
         d="m 350.535,1206.02 8.199,-135.18 8.797,-135.11 c 6.301,-90.039 12.766,-180.058 21.293,-269.878 7.824,-89.883 17.574,-179.59 30.199,-268.86 6.422,-44.613 13.793,-89.113 23.563,-133.094 2.227,-11.039 4.945,-21.957 7.781,-32.859 2.551,-10.988 6.047,-21.668 9.309,-32.449 1.496,-5.438 3.64,-10.641 5.609,-15.91 2.137,-5.18 3.672,-10.668 6.293,-15.641 l 7.36,-15.199 9.476,-13.988 c -15.098,17.128 -23.094,38.918 -31.242,59.878 -3.633,10.711 -7.52,21.372 -10.442,32.301 -3.214,10.848 -6.316,21.739 -8.914,32.75 -10.789,43.938 -19.031,88.449 -26.402,133.051 -14.234,89.289 -23.926,179.18 -32.535,269.117 -7.707,90.02 -14.324,180.11 -18.992,270.313 -4.621,90.198 -8.203,180.458 -9.352,270.758"
         style="fill:#c3c5c2;fill-opacity:1;fill-rule:nonzero;stroke:none"
         transform="matrix(0.13333333,0,0,-0.13333333,0,547.02667)" />
      <path
         id="path190"
         d="m 308.809,1241.91 57.054,4 -15.328,231 -59.492,18.36 17.766,-253.36"
         style="fill:#ba8231;fill-opacity:1;fill-rule:nonzero;stroke:none"
         transform="matrix(0.13333333,0,0,-0.13333333,0,547.02667)" />
      <path
         id="path191"
         d="m 419.477,1504.27 c 7.878,17.05 18.406,32.95 30.945,47.38 12.672,14.19 27.746,27.32 46.551,35 9.336,3.82 19.558,6.22 30.015,6.42 10.461,0.12 20.926,-2 30.614,-5.7 19.371,-7.86 34.945,-20.96 47.839,-36.31 13.125,-15.29 22.012,-35.3 23.551,-56.07 1.621,-20.82 -4.262,-41.27 -13.867,-58.56 -9.711,-17.38 -23.086,-32.07 -38.398,-43.81 -15.364,-11.54 -32.817,-20.75 -51.45,-24.03 17.082,7.82 31.903,18.94 44.629,31.83 12.703,12.83 23.438,27.52 30.684,43.42 7.351,15.83 10.945,32.98 9.187,49.46 -1.453,16.57 -8.992,31.96 -19.617,45.32 -10.765,13.39 -24.566,24.94 -39.523,32 -15.168,6.67 -32.227,7.57 -48.571,2.22 -16.3,-5.37 -31.621,-15.48 -45.242,-27.58 -13.676,-12.12 -26.125,-26 -37.347,-40.99"
         style="fill:#3e3f42;fill-opacity:1;fill-rule:nonzero;stroke:none"
         transform="matrix(0.13333333,0,0,-0.13333333,0,547.02667)" />
      <path
         id="path192"
         d="m 671.332,1526.95 c 7.887,17.05 18.406,32.95 30.949,47.37 12.668,14.19 27.742,27.33 46.543,35 9.336,3.83 19.563,6.21 30.028,6.43 10.457,0.11 20.918,-2 30.605,-5.71 19.367,-7.87 34.949,-20.95 47.84,-36.3 13.133,-15.31 22.012,-35.31 23.555,-56.08 1.621,-20.81 -4.262,-41.27 -13.868,-58.55 -9.711,-17.39 -23.086,-32.07 -38.398,-43.81 -15.359,-11.55 -32.82,-20.75 -51.453,-24.04 17.086,7.83 31.902,18.94 44.629,31.82 12.711,12.84 23.441,27.54 30.683,43.44 7.352,15.83 10.946,32.98 9.196,49.45 -1.461,16.57 -8.996,31.96 -19.625,45.32 -10.766,13.39 -24.567,24.95 -39.516,32.01 -15.18,6.67 -32.234,7.56 -48.57,2.2 -16.309,-5.36 -31.625,-15.47 -45.246,-27.57 -13.68,-12.11 -26.125,-25.99 -37.352,-40.98"
         style="fill:#3e3f42;fill-opacity:1;fill-rule:nonzero;stroke:none"
         transform="matrix(0.13333333,0,0,-0.13333333,0,547.02667)" />
      <path
         id="path193"
         d="m 925.008,1538.49 c 7.101,15.74 16.68,30.42 28.148,43.75 11.586,13.12 25.414,25.29 42.782,32.43 8.622,3.57 18.082,5.8 27.772,6.03 9.7,0.13 19.4,-1.83 28.38,-5.25 17.96,-7.24 32.34,-19.32 44.26,-33.5 12.15,-14.12 20.36,-32.67 21.78,-51.92 1.48,-19.27 -4.01,-38.2 -12.92,-54.13 -9.02,-16.01 -21.4,-29.49 -35.57,-40.22 -14.21,-10.54 -30.34,-18.92 -47.51,-21.74 15.62,7.36 29.12,17.65 40.69,29.53 11.56,11.83 21.3,25.31 27.85,39.86 6.66,14.47 9.87,30.07 8.24,45.01 -1.33,15.04 -8.19,28.99 -17.85,41.18 -9.79,12.2 -22.39,22.74 -35.93,29.19 -13.76,6.07 -29.18,6.96 -44.09,2.15 -14.868,-4.83 -28.942,-13.98 -41.481,-25.01 -12.602,-11.03 -24.114,-23.68 -34.551,-37.36"
         style="fill:#3e3f42;fill-opacity:1;fill-rule:nonzero;stroke:none"
         transform="matrix(0.13333333,0,0,-0.13333333,0,547.02667)" />
      <path
         id="path194"
         d="m 1173.61,1560.56 c 7.06,15.67 16.59,30.28 28,43.55 11.53,13.05 25.29,25.17 42.57,32.29 8.58,3.56 18,5.78 27.65,6 9.66,0.12 19.32,-1.82 28.26,-5.22 17.89,-7.21 32.19,-19.24 44.06,-33.35 12.1,-14.06 20.28,-32.53 21.68,-51.69 1.48,-19.2 -3.99,-38.02 -12.86,-53.88 -8.98,-15.94 -21.31,-29.36 -35.41,-40.03 -14.15,-10.49 -30.21,-18.82 -47.3,-21.61 15.54,7.33 28.96,17.57 40.48,29.39 11.48,11.78 21.18,25.21 27.69,39.67 6.62,14.39 9.8,29.91 8.19,44.77 -1.32,14.97 -8.15,28.82 -17.75,40.94 -9.75,12.15 -22.28,22.64 -35.74,29.04 -13.68,6.05 -29.02,6.94 -43.85,2.15 -14.78,-4.8 -28.79,-13.89 -41.27,-24.86 -12.55,-10.97 -24,-23.55 -34.4,-37.16"
         style="fill:#3e3f42;fill-opacity:1;fill-rule:nonzero;stroke:none"
         transform="matrix(0.13333333,0,0,-0.13333333,0,547.02667)" />
      <path
         id="path195"
         d="m 1436.89,1580.74 c 6.88,15.37 16.2,29.7 27.37,42.73 11.29,12.82 24.77,24.73 41.73,31.72 8.42,3.5 17.67,5.69 27.15,5.91 9.48,0.14 18.97,-1.77 27.75,-5.11 17.57,-7.08 31.61,-18.88 43.26,-32.72 11.88,-13.79 19.91,-31.95 21.29,-50.76 1.44,-18.85 -3.94,-37.34 -12.65,-52.9 -8.83,-15.63 -20.94,-28.77 -34.78,-39.22 -13.89,-10.27 -29.66,-18.4 -46.42,-21.11 15.21,7.25 28.34,17.3 39.59,28.9 11.24,11.55 20.71,24.7 27.07,38.86 6.46,14.09 9.56,29.26 7.98,43.79 -1.3,14.6 -7.98,28.14 -17.36,40 -9.53,11.88 -21.79,22.14 -34.94,28.41 -13.36,5.91 -28.33,6.79 -42.84,2.14 -14.47,-4.69 -28.19,-13.57 -40.43,-24.29 -12.3,-10.73 -23.55,-23.04 -33.77,-36.35"
         style="fill:#3e3f42;fill-opacity:1;fill-rule:nonzero;stroke:none"
         transform="matrix(0.13333333,0,0,-0.13333333,0,547.02667)" />
      <path
         id="path196"
         d="m 942.57,712.391 c -0.773,-25.309 5.989,-50.77 20.528,-70.969 14.074,-20.141 36.386,-35.352 60.592,-36.203 24.05,-0.66 47.7,10.461 64.83,27.652 16.99,17.098 29.32,40.16 29.44,64.09 0.9,23.769 -11.56,46.949 -29.28,63.269 -17.61,16.399 -42.28,26.559 -65.85,21.86 -23.596,-4.598 -42.955,-24.02 -51.83,-46.879 -9.613,-22.891 -9.266,-49.559 -0.383,-73.301 -10.996,22.899 -12.726,50.442 -4.203,75.039 8.418,24.34 28.195,46.34 54.786,52.653 13.1,3.179 27.09,2.089 39.66,-2.34 12.62,-4.364 24.09,-11.473 33.93,-20.282 19.44,-17.488 33.8,-42.808 33.16,-70.242 -0.57,-27.238 -14.49,-52.047 -33.08,-70.367 -18.72,-18.191 -44.71,-30.801 -71.66,-28.801 -27.069,2.032 -50.288,19.52 -64.155,41.141 -13.793,21.988 -19.504,48.469 -16.485,73.68"
         style="fill:#fabb43;fill-opacity:1;fill-rule:nonzero;stroke:none"
         transform="matrix(0.13333333,0,0,-0.13333333,0,547.02667)" />
      <path
         id="path197"
         d="m 1609.32,1149.93 c -25.13,3.12 -51.11,-1.26 -72.55,-13.87 -21.36,-12.15 -38.58,-32.96 -41.66,-56.98 -2.89,-23.89 5.99,-48.47 21.53,-67.11 15.46,-18.501 37.27,-32.919 61.09,-35.251 23.59,-3.09 47.82,7.16 65.71,23.301 17.95,16.02 30.36,39.64 27.85,63.55 -2.39,23.92 -19.93,44.99 -41.88,55.95 -21.9,11.69 -48.49,13.81 -72.95,7.15 23.83,8.83 51.4,8.01 75.11,-2.75 23.46,-10.63 43.54,-32.36 47.36,-59.42 1.95,-13.34 -0.43,-27.17 -6.01,-39.27 -5.5,-12.17 -13.64,-22.93 -23.33,-31.91 -19.21,-17.738 -45.75,-29.691 -73,-26.519 -27.07,3.09 -50.48,19.23 -67.01,39.449 -16.38,20.33 -26.53,47.36 -22.04,74.01 4.52,26.77 24.08,48.27 46.89,60.08 23.18,11.7 50.08,14.94 74.89,9.59"
         style="fill:#fabb43;fill-opacity:1;fill-rule:nonzero;stroke:none"
         transform="matrix(0.13333333,0,0,-0.13333333,0,547.02667)" />
      <path
         id="path198"
         d="m 996.566,694.27 c 11.974,-7.7 22.894,-16.528 33.564,-25.61 l -6.64,-0.691 c 3.99,6.383 8.3,12.48 12.63,18.582 4.49,5.98 8.9,12.039 13.78,17.738 4.78,5.781 9.75,11.422 15.12,16.742 5.35,5.258 10.98,10.629 17.75,14.199 -4.92,-5.718 -8.77,-12.031 -13.06,-18.101 l -12.6,-18.34 c -8.51,-12.141 -17.24,-24.187 -26.39,-35.867 l -3.28,-4.192 -3.36,3.512 c -9.68,10.137 -19.13,20.52 -27.514,32.028"
         style="fill:#fabb43;fill-opacity:1;fill-rule:nonzero;stroke:none"
         transform="matrix(0.13333333,0,0,-0.13333333,0,547.02667)" />
      <path
         id="path199"
         d="m 3007.8,2941.18 c -25.11,15.79 -50.86,30.77 -77.1,44.83 -30,42.99 -71.21,107.36 -113.44,175.11 21.8,-8.63 43.38,-17.8 64.72,-27.49 84.41,-37.95 165.15,-83.91 240.57,-137.38 -45.62,-25.52 -87.03,-44.82 -114.75,-55.07"
         style="fill:#36589e;fill-opacity:1;fill-rule:nonzero;stroke:none"
         transform="matrix(0.13333333,0,0,-0.13333333,0,547.02667)" />
      <path
         id="path200"
         d="m 3007.69,2941.14 c -25.06,15.77 -50.7,30.71 -76.9,44.75 -0.03,0.04 -0.06,0.08 -0.09,0.12 26.24,-14.06 51.99,-29.04 77.1,-44.83 -0.04,-0.02 -0.07,-0.03 -0.11,-0.04"
         style="fill:#a5c9db;fill-opacity:1;fill-rule:nonzero;stroke:none"
         transform="matrix(0.13333333,0,0,-0.13333333,0,547.02667)" />
      <path
         id="path201"
         d="m 3132.1,3001.65 c -77.49,54.38 -160.07,101.66 -247.02,138.99 -24.16,10.35 -48.59,20.15 -73.27,29.24 -9.77,15.71 -19.58,31.56 -29.28,47.33 137.95,-46.22 266.53,-112.83 382.22,-196.22 -10.99,-6.75 -21.91,-13.21 -32.65,-19.34"
         style="fill:#36589e;fill-opacity:1;fill-rule:nonzero;stroke:none"
         transform="matrix(0.13333333,0,0,-0.13333333,0,547.02667)" />
      <path
         id="path202"
         d="m 3122.55,2996.25 c -75.42,53.47 -156.16,99.43 -240.57,137.38 -21.34,9.69 -42.92,18.86 -64.72,27.49 -1.82,2.92 -3.63,5.83 -5.45,8.76 24.68,-9.09 49.11,-18.89 73.27,-29.24 86.95,-37.33 169.53,-84.61 247.02,-138.99 -3.2,-1.83 -6.39,-3.63 -9.55,-5.4"
         style="fill:#64afd1;fill-opacity:1;fill-rule:nonzero;stroke:none"
         transform="matrix(0.13333333,0,0,-0.13333333,0,547.02667)" />
      <path
         id="path203"
         d="m 2729.71,3442.91 c 0,0 310.92,-525.01 342.11,-532.51 31.19,-7.51 402.59,172.59 418.69,332.92 0,0 -72.53,57.51 -116.42,118.36 -43.9,60.86 -240.59,371.14 -240.59,371.14 l -403.79,-289.91"
         style="fill:#ffffff;fill-opacity:1;fill-rule:nonzero;stroke:none"
         transform="matrix(0.13333333,0,0,-0.13333333,0,547.02667)" />
      <path
         id="path204"
         d="m 3440.08,3173.74 c 0.59,16.76 0.9,32.56 -0.44,48.41 -0.5,7.91 -1.5,15.77 -2.79,23.66 -1.13,7.96 -3.06,15.74 -4.45,24.14 5.17,-6.64 9.36,-14.16 12.01,-22.2 2.95,-7.97 4.48,-16.4 5.2,-24.85 0.57,-8.47 0.29,-17 -1.28,-25.32 -1.49,-8.29 -3.96,-16.51 -8.25,-23.84"
         style="fill:#99b6bb;fill-opacity:1;fill-rule:nonzero;stroke:none"
         transform="matrix(0.13333333,0,0,-0.13333333,0,547.02667)" />
      <path
         id="path205"
         d="m 2831.64,3403.77 36.68,25.5 36.94,25.02 73.85,49.92 c 24.71,16.49 49.06,33.45 73.45,50.36 24.28,17.07 48.37,34.39 71.18,53.57 -5.11,-5.41 -10.22,-10.87 -15.57,-16.09 l -16.41,-15.25 c -11.39,-9.64 -22.87,-19.21 -34.61,-28.39 -23.45,-18.48 -47.79,-35.75 -72.44,-52.48 -24.77,-16.56 -49.73,-32.83 -75.32,-48.09 -25.52,-15.36 -51.26,-30.38 -77.75,-44.07"
         style="fill:#99b6bb;fill-opacity:1;fill-rule:nonzero;stroke:none"
         transform="matrix(0.13333333,0,0,-0.13333333,0,547.02667)" />
      <path
         id="path206"
         d="m 2873.61,3348.38 36.69,25.5 36.93,25.02 73.86,49.92 c 24.7,16.49 49.05,33.46 73.45,50.37 24.28,17.07 48.37,34.38 71.17,53.56 -5.1,-5.41 -10.21,-10.87 -15.57,-16.09 l -16.41,-15.25 c -11.39,-9.63 -22.85,-19.21 -34.61,-28.4 -23.45,-18.47 -47.77,-35.74 -72.43,-52.47 -24.77,-16.56 -49.74,-32.83 -75.32,-48.09 -25.52,-15.36 -51.26,-30.37 -77.76,-44.07"
         style="fill:#99b6bb;fill-opacity:1;fill-rule:nonzero;stroke:none"
         transform="matrix(0.13333333,0,0,-0.13333333,0,547.02667)" />
      <path
         id="path207"
         d="m 2915.59,3292.99 36.68,25.51 36.95,25.01 73.84,49.92 c 24.71,16.5 49.07,33.46 73.45,50.37 24.29,17.07 48.37,34.38 71.18,53.56 -5.1,-5.41 -10.21,-10.87 -15.56,-16.09 l -16.42,-15.25 c -11.4,-9.63 -22.86,-19.21 -34.62,-28.4 -23.44,-18.46 -47.77,-35.73 -72.43,-52.46 -24.77,-16.57 -49.73,-32.84 -75.32,-48.1 -25.52,-15.36 -51.25,-30.37 -77.75,-44.07"
         style="fill:#99b6bb;fill-opacity:1;fill-rule:nonzero;stroke:none"
         transform="matrix(0.13333333,0,0,-0.13333333,0,547.02667)" />
      <path
         id="path208"
         d="m 2957.57,3237.61 36.68,25.5 36.94,25.01 73.85,49.93 c 24.7,16.49 49.06,33.45 73.44,50.36 24.29,17.07 48.37,34.38 71.19,53.56 -5.11,-5.41 -10.22,-10.86 -15.57,-16.09 l -16.42,-15.24 c -11.38,-9.64 -22.86,-19.21 -34.61,-28.4 -23.44,-18.47 -47.77,-35.74 -72.43,-52.47 -24.77,-16.57 -49.73,-32.84 -75.32,-48.1 -25.53,-15.36 -51.26,-30.37 -77.75,-44.06"
         style="fill:#99b6bb;fill-opacity:1;fill-rule:nonzero;stroke:none"
         transform="matrix(0.13333333,0,0,-0.13333333,0,547.02667)" />
      <path
         id="path209"
         d="m 2999.54,3182.22 36.69,25.5 36.93,25.01 73.86,49.93 c 24.71,16.48 49.05,33.45 73.45,50.36 24.27,17.07 48.37,34.39 71.17,53.56 -5.1,-5.4 -10.22,-10.87 -15.56,-16.08 l -16.41,-15.25 c -11.4,-9.64 -22.87,-19.21 -34.62,-28.4 -23.45,-18.47 -47.78,-35.74 -72.43,-52.47 -24.77,-16.57 -49.74,-32.84 -75.33,-48.09 -25.51,-15.37 -51.25,-30.38 -77.75,-44.07"
         style="fill:#99b6bb;fill-opacity:1;fill-rule:nonzero;stroke:none"
         transform="matrix(0.13333333,0,0,-0.13333333,0,547.02667)" />
      <path
         id="path210"
         d="m 3041.52,3126.83 36.68,25.5 36.94,25.01 73.85,49.93 c 24.71,16.49 49.06,33.45 73.45,50.37 24.29,17.07 48.37,34.38 71.18,53.56 -5.11,-5.41 -10.21,-10.87 -15.57,-16.09 l -16.41,-15.25 c -11.39,-9.63 -22.86,-19.21 -34.61,-28.4 -23.45,-18.47 -47.78,-35.74 -72.44,-52.47 -24.77,-16.57 -49.73,-32.84 -75.32,-48.1 -25.52,-15.35 -51.25,-30.36 -77.75,-44.06"
         style="fill:#99b6bb;fill-opacity:1;fill-rule:nonzero;stroke:none"
         transform="matrix(0.13333333,0,0,-0.13333333,0,547.02667)" />
      <path
         id="path211"
         d="m 3083.49,3071.44 36.68,25.5 36.95,25.02 73.84,49.92 c 24.71,16.49 49.07,33.45 73.45,50.37 24.29,17.07 48.37,34.38 71.18,53.55 -5.09,-5.41 -10.21,-10.86 -15.56,-16.08 l -16.42,-15.25 c -11.39,-9.63 -22.85,-19.21 -34.61,-28.4 -23.45,-18.47 -47.77,-35.74 -72.43,-52.46 -24.77,-16.57 -49.74,-32.84 -75.32,-48.1 -25.53,-15.36 -51.26,-30.37 -77.76,-44.07"
         style="fill:#99b6bb;fill-opacity:1;fill-rule:nonzero;stroke:none"
         transform="matrix(0.13333333,0,0,-0.13333333,0,547.02667)" />
    </g>
  </g>
</svg>
